<?xml version="1.0" encoding="utf-8"?>
<!DOCTYPE svg PUBLIC "-//W3C//DTD SVG 1.1//EN" "http://www.w3.org/Graphics/SVG/1.1/DTD/svg11.dtd">
<svg version="1.1"
	xmlns="http://www.w3.org/2000/svg"
	xmlns:xlink="http://www.w3.org/1999/xlink" 
	viewBox="0 0 32 32">
	<path d="M16,32C7.178,32,0,24.822,0,16S7.178,0,16,0s16,7.178,16,16S24.822,32,16,32z M16,2C8.28,2,2,8.28,2,16
		s6.28,14,14,14s14-6.28,14-14S23.72,2,16,2z"/>
	<path d="M16,12c-2.206,0-4-1.794-4-4s1.794-4,4-4s4,1.794,4,4S18.206,12,16,12z M16,6c-1.103,0-2,0.897-2,2
		s0.897,2,2,2s2-0.897,2-2S17.103,6,16,6z"/>
	<path d="M21.001,28c-0.367,0-0.72-0.202-0.896-0.553L16.382,20h-0.764l-3.724,7.447
		c-0.247,0.494-0.846,0.695-1.342,0.447c-0.494-0.247-0.694-0.848-0.447-1.342l4-8C14.275,18.214,14.621,18,15,18h2
		c0.379,0,0.725,0.214,0.895,0.553l4,8c0.247,0.494,0.047,1.095-0.447,1.342C21.304,27.966,21.151,28,21.001,28z"/>
	<path d="M15,16c-0.104,0-0.211-0.017-0.316-0.052l-6-2c-0.524-0.175-0.807-0.741-0.632-1.265
		c0.174-0.523,0.74-0.809,1.265-0.632l6,2c0.524,0.175,0.807,0.741,0.632,1.265C15.809,15.735,15.419,16,15,16z"/>
	<path d="M11,27"/>
	<path d="M17,16h-2c-0.552,0-1-0.448-1-1s0.448-1,1-1h1.838l5.846-1.949c0.526-0.176,1.091,0.109,1.265,0.632
		c0.175,0.524-0.108,1.09-0.632,1.265l-6,2C17.214,15.983,17.107,16,17,16z"/>
</svg>
