<?xml version="1.0" encoding="utf-8"?>
<!DOCTYPE svg PUBLIC "-//W3C//DTD SVG 1.1//EN" "http://www.w3.org/Graphics/SVG/1.1/DTD/svg11.dtd">
<svg version="1.1"
	xmlns="http://www.w3.org/2000/svg"
	xmlns:xlink="http://www.w3.org/1999/xlink" 
	viewBox="0 0 32 32">
<path d="M2,2.35v27.3h28V2.35H2z M3.167,3.517h25.667v24.967H3.167V3.517L3.167,3.517z M11.712,17.809l-0.924,3.498
	c-0.02,0.098-0.059,0.118-0.171,0.118H8.904c-0.117,0-0.134-0.038-0.117-0.172L12.1,9.651c0.059-0.21,0.096-0.395,0.115-0.973
	c0-0.078,0.038-0.117,0.097-0.117h2.447c0.076,0,0.117,0.02,0.135,0.117l3.715,12.592c0.021,0.097,0,0.154-0.098,0.154h-1.924
	c-0.098,0-0.154-0.022-0.173-0.1l-0.962-3.519h-3.742L11.712,17.809z M14.965,15.913c-0.327-1.291-1.096-4.116-1.386-5.483h-0.02
	c-0.249,1.364-0.865,3.675-1.348,5.483H14.965z M20.215,9.427c0-0.75,0.521-1.194,1.193-1.194c0.711,0,1.193,0.481,1.193,1.194
	c0,0.771-0.5,1.194-1.213,1.194c-0.702,0-1.181-0.424-1.181-1.194H20.215z M20.346,12.081c0-0.093,0.039-0.128,0.136-0.128h1.831
	c0.104,0,0.141,0.039,0.141,0.136v9.21c0,0.098-0.021,0.136-0.133,0.136H20.51c-0.115,0-0.154-0.058-0.154-0.15v-9.203
	L20.346,12.081L20.346,12.081z"/>
</svg>
