<?xml version="1.0" encoding="utf-8"?>
<!DOCTYPE svg PUBLIC "-//W3C//DTD SVG 1.1//EN" "http://www.w3.org/Graphics/SVG/1.1/DTD/svg11.dtd">
<svg version="1.1"
	xmlns="http://www.w3.org/2000/svg"
	xmlns:xlink="http://www.w3.org/1999/xlink" 
	viewBox="0 0 32 32">
<path d="M2,2.35v27.3h28V2.35H2z M3.167,3.517h25.667v24.967H3.167V3.517L3.167,3.517z M8.767,8.744
	c0-0.078,0.163-0.137,0.263-0.137c0.751-0.038,1.852-0.059,3.007-0.059c3.234,0,4.492,1.773,4.492,4.043
	c0,2.964-2.149,4.235-4.785,4.235c-0.443,0-0.595-0.02-0.903-0.02v4.482c0,0.097-0.039,0.137-0.134,0.137H8.904
	c-0.097,0-0.134-0.034-0.134-0.133V8.744H8.767z M10.837,14.941c0.269,0.018,0.481,0.018,0.946,0.018
	c1.364,0,2.648-0.48,2.648-2.328c0-1.481-0.917-2.233-2.475-2.233c-0.462,0-0.903,0.019-1.116,0.039v4.508L10.837,14.941z
	 M20.88,13.555c-0.924,0-1.232,0.462-1.232,0.847c0,0.424,0.211,0.711,1.443,1.348c1.83,0.887,2.406,1.733,2.406,2.982
	c0,1.867-1.424,2.87-3.35,2.87c-1.023,0-1.89-0.213-2.392-0.501c-0.077-0.038-0.095-0.096-0.095-0.192v-1.713
	c0-0.115,0.056-0.153,0.134-0.097c0.728,0.482,1.575,0.693,2.349,0.693c0.922,0,1.308-0.385,1.308-0.906
	c0-0.423-0.269-0.79-1.442-1.405c-1.657-0.795-2.35-1.599-2.35-2.949c0-1.502,1.173-2.754,3.214-2.754
	c1.002,0,1.708,0.154,2.092,0.327c0.097,0.059,0.116,0.154,0.116,0.231v1.599c0,0.097-0.06,0.155-0.174,0.117
	c-0.52-0.308-1.285-0.501-2.034-0.501L20.88,13.555z"/>
</svg>
