<?xml version="1.0" encoding="utf-8"?>
<!DOCTYPE svg PUBLIC "-//W3C//DTD SVG 1.1//EN" "http://www.w3.org/Graphics/SVG/1.1/DTD/svg11.dtd">
<svg version="1.1"
	xmlns="http://www.w3.org/2000/svg"
	xmlns:xlink="http://www.w3.org/1999/xlink" 
	viewBox="0 0 32 32">
<path d="M2,2.35v27.3h28V2.35H2z M3.167,3.517h25.667v24.967H3.167V3.517L3.167,3.517z M12.237,21.271
	c0,0.116-0.021,0.154-0.153,0.154h-1.792c-0.117,0-0.154-0.059-0.154-0.154V8.745c0-0.117,0.059-0.154,0.154-0.154h1.812
	c0.096,0,0.134,0.038,0.134,0.135V21.271z M14.302,16.755c0-2.793,1.841-4.968,4.786-4.968c0.25,0,0.385,0,0.614,0.018V8.708
	c0-0.078,0.059-0.117,0.118-0.117h1.896c0.098,0,0.115,0.039,0.115,0.097v10.914c0,0.328,0,0.729,0.059,1.173
	c0,0.076-0.021,0.097-0.1,0.136c-1.001,0.482-2.062,0.693-3.063,0.693c-2.581,0-4.429-1.599-4.429-4.85H14.302z M19.703,13.693
	c-0.171-0.078-0.404-0.117-0.691-0.117c-1.499,0-2.551,1.155-2.551,3.08c0,2.194,1.071,3.08,2.417,3.08
	c0.288,0,0.599-0.038,0.83-0.134v-5.91H19.703z"/>
</svg>
