<?xml version="1.0" encoding="utf-8"?>
<!DOCTYPE svg PUBLIC "-//W3C//DTD SVG 1.1//EN" "http://www.w3.org/Graphics/SVG/1.1/DTD/svg11.dtd">
<svg version="1.1"
	xmlns="http://www.w3.org/2000/svg"
	xmlns:xlink="http://www.w3.org/1999/xlink" 
	viewBox="0 0 32 32">
<path d="M7,2H4C2.896,2,2,2.896,2,4v24c0,1.104,0.896,2,2,2h3V2z"/>
<path d="M17.255,19.902c0-1.063-1.048-1.323-1.945-1.323h-1.573v2.745h1.421
	C16.138,21.324,17.255,21.09,17.255,19.902z"/>
<path d="M22.997,18.579h-1.269v2.8h1.213c1.132,0,2.166-0.275,2.166-1.436
	C25.107,18.786,24.073,18.579,22.997,18.579z"/>
<path d="M28,2H9v28h19c1.104,0,2-0.896,2-2V4C30,2.896,29.104,2,28,2z M17.27,26.883l-2.263-4.138h-1.269v4.138H12
	v-9.766h3.393c1.833,0,3.6,0.73,3.6,2.8c0,1.407-0.869,2.331-2.234,2.635l2.607,4.331H17.27z M23.066,22.842h-1.338v4.041H19.99
	v-9.766h3.186c2.235,0,3.684,0.785,3.684,2.826C26.859,22.098,25.135,22.842,23.066,22.842z"/>
</svg>
