<?xml version="1.0" encoding="utf-8"?>
<!DOCTYPE svg PUBLIC "-//W3C//DTD SVG 1.1//EN" "http://www.w3.org/Graphics/SVG/1.1/DTD/svg11.dtd">
<svg version="1.1"
	xmlns="http://www.w3.org/2000/svg"
	xmlns:xlink="http://www.w3.org/1999/xlink" 
	viewBox="0 0 32 32">
	<path opacity="0.4" d="M10,24v-2V9V7H4v2v15c0,1.104,0.896,2,2,2h6C10.896,26,10,25.104,10,24z"/>
	<path d="M21,8c-0.552,0-1-0.448-1-1V4h-8v3c0,0.552-0.448,1-1,1s-1-0.448-1-1V3c0-0.552,0.448-1,1-1h10
		c0.552,0,1,0.448,1,1v4C22,7.552,21.552,8,21,8z"/>
	<path d="M29,28H3c-1.654,0-3-1.346-3-3V9c0-1.654,1.346-3,3-3h26c1.654,0,3,1.346,3,3v16C32,26.654,30.654,28,29,28
		z M3,8C2.449,8,2,8.449,2,9v16c0,0.551,0.449,1,1,1h26c0.551,0,1-0.449,1-1V9c0-0.551-0.449-1-1-1H3z"/>
	<path d="M19,18H1c-0.552,0-1-0.448-1-1s0.448-1,1-1h18c0.552,0,1,0.448,1,1S19.552,18,19,18z"/>
	<line x1="9" y1="15" x2="9" y2="19"/>
	<path d="M9,20c-0.552,0-1-0.448-1-1v-4c0-0.552,0.448-1,1-1s1,0.448,1,1v4C10,19.552,9.552,20,9,20z"/>
	<line x1="23" y1="15" x2="23" y2="19"/>
	<path d="M23,20c-0.552,0-1-0.448-1-1v-4c0-0.552,0.448-1,1-1s1,0.448,1,1v4C24,19.552,23.552,20,23,20z"/>
	<path d="M31,18h-8c-0.552,0-1-0.448-1-1s0.448-1,1-1h8c0.552,0,1,0.448,1,1S31.552,18,31,18z"/>
</svg>
