<?xml version="1.0" encoding="utf-8"?>
<!DOCTYPE svg PUBLIC "-//W3C//DTD SVG 1.1//EN" "http://www.w3.org/Graphics/SVG/1.1/DTD/svg11.dtd">
<svg version="1.1"
  xmlns="http://www.w3.org/2000/svg"
	xmlns:xlink="http://www.w3.org/1999/xlink" 
	viewBox="0 0 32 32">
<path d="M9.255,5.998c0.936,0,1.787,0.08,2.561,0.251c0.77,0.173,1.427,0.44,1.98,0.813
	c0.547,0.373,0.978,0.867,1.281,1.494c0.3,0.627,0.453,1.4,0.453,2.308c0,0.987-0.227,1.813-0.676,2.48
	c-0.451,0.667-1.117,1.2-2.003,1.627c1.208,0.348,2.101,0.96,2.697,1.827c0.598,0.88,0.888,1.935,0.888,3.149
	c0,1-0.174,1.853-0.548,2.572c-0.373,0.732-0.894,1.334-1.548,1.802c-0.64,0.464-1.4,0.8-2.228,1.021
	c-0.813,0.22-1.669,0.341-2.548,0.341H0V6.01h9.254V6L9.255,5.998z M22.596,22.221c0.588,0.571,1.433,0.857,2.524,0.857
	c0.787,0,1.47-0.198,2.043-0.598c0.564-0.388,0.906-0.813,1.039-1.252h3.453c-0.537,1.707-1.396,2.934-2.535,3.666
	c-1.133,0.748-2.512,1.107-4.107,1.107c-1.117,0-2.111-0.173-3.029-0.533c-0.897-0.359-1.654-0.865-2.294-1.52
	c-0.619-0.653-1.099-1.44-1.438-2.361c-0.337-0.92-0.498-1.934-0.498-3.027c0-1.071,0.182-2.055,0.538-2.975
	c0.358-0.933,0.858-1.708,1.491-2.388c0.662-0.681,1.421-1.193,2.319-1.593c0.896-0.399,1.866-0.576,2.959-0.576
	c1.215,0,2.256,0.219,3.176,0.697c0.893,0.453,1.627,1.094,2.213,1.868c0.586,0.781,1.002,1.68,1.254,2.694
	c0.253,1,0.332,2.054,0.281,3.175H21.728c0,1.119,0.373,2.176,0.947,2.753l-0.107,0.04L22.596,22.221z M8.937,22.287
	c0.423,0,0.827-0.04,1.208-0.124c0.387-0.08,0.731-0.22,1.018-0.399c0.28-0.181,0.52-0.438,0.693-0.776
	c0.172-0.32,0.252-0.761,0.252-1.281c0-1-0.293-1.72-0.853-2.16c-0.573-0.428-1.32-0.641-2.254-0.641h-4.68v5.403h4.615v-0.043
	L8.937,22.287z M27.087,14.75c-0.469-0.513-1.254-0.789-2.21-0.789c-0.624,0-1.142,0.099-1.556,0.317
	c-0.402,0.2-0.732,0.467-0.987,0.787c-0.255,0.32-0.423,0.641-0.522,1c-0.1,0.348-0.16,0.667-0.181,0.949h6.351
	c-0.093-1-0.438-1.733-0.906-2.255v0.013L27.087,14.75z M8.696,13.931c0.765,0,1.4-0.18,1.9-0.549c0.499-0.36,0.74-0.96,0.74-1.785
	c0-0.459-0.094-0.833-0.241-1.128c-0.173-0.293-0.4-0.52-0.667-0.684c-0.28-0.165-0.6-0.28-0.96-0.343
	c-0.36-0.071-0.747-0.099-1.12-0.099h-4.04v4.588H8.696L8.696,13.931z M20.832,7.318h7.961v1.939h-7.961V7.316V7.318z"/>
</svg>
