<?xml version="1.0" encoding="utf-8"?>
<!DOCTYPE svg PUBLIC "-//W3C//DTD SVG 1.1//EN" "http://www.w3.org/Graphics/SVG/1.1/DTD/svg11.dtd">
<svg version="1.1"
	xmlns="http://www.w3.org/2000/svg"
	xmlns:xlink="http://www.w3.org/1999/xlink" 
	viewBox="0 0 32 32">
	<path d="M0,6.884h7.48v2.2H0V6.884z M0,2.798h7.48v2.2H0V2.798z M13.422,10.939H0v2.2h12.92
		c1.414,0,4.715,0.031,5.939,2.013v-1.227C18.264,11.977,16.504,10.939,13.422,10.939z M13.453,15.025H0v2.199h12.92
		c3.143,0,5.123,0.126,5.939,0.566v-0.975C18.23,15.277,15.592,15.025,13.453,15.025z M13.422,25.398H0v-2.2h12.92
		c1.414,0,4.715-0.031,5.939-2.013v1.227C18.264,24.361,16.504,25.398,13.422,25.398z M13.453,21.313H0v-2.199h12.92
		c3.143,0,5.123-0.126,5.939-0.566v0.975C18.23,21.061,15.592,21.313,13.453,21.313z M22.131,29.202H32V27.85h-9.588
		c-0.85,0-2.859-0.03-3.584-1.193v0.754C19.176,28.573,20.242,29.202,22.131,29.202L22.131,29.202z M22.1,26.719h9.869v-1.352
		h-9.557c-1.918,0-3.111-0.063-3.584-0.346v0.598C19.205,26.563,20.811,26.719,22.1,26.719z"/>
</svg>
