<?xml version="1.0" encoding="utf-8"?>
<!DOCTYPE svg PUBLIC "-//W3C//DTD SVG 1.1//EN" "http://www.w3.org/Graphics/SVG/1.1/DTD/svg11.dtd">
<svg version="1.1"
	xmlns="http://www.w3.org/2000/svg"
	xmlns:xlink="http://www.w3.org/1999/xlink" 
	viewBox="0 0 32 32">
<path d="M16.679,17.618c0.063-1.067,0.584-2.008,1.372-2.675c0.785-0.655,1.805-1.053,2.918-1.053
	c0.01,0,0.021,0,0.033,0H21c1.132,0,2.175,0.4,2.948,1.053c0.788,0.667,1.312,1.608,1.368,2.673c0.062,1.097-0.377,2.115-1.15,2.871
	c-0.811,0.772-1.911,1.251-3.121,1.251c-0.016,0-0.031,0-0.047,0H21c-0.014,0-0.029,0-0.045,0c-1.212,0-2.313-0.479-3.125-1.253
	l0.002,0.002c-0.772-0.756-1.212-1.773-1.151-2.869H16.679z"/>
<path d="M9.798,19.772c0.008,0.42,0.141,1.229,0.341,1.865c0.46,1.428,1.187,2.655,2.13,3.682l-0.006-0.006
	c1.021,1.119,2.257,2.02,3.646,2.641l0.07,0.027c1.416,0.641,3.068,1.015,4.812,1.015c0.023,0,0.048,0,0.072,0h-0.004
	c0.006,0,0.015,0,0.021,0c1.76,0,3.428-0.38,4.93-1.06l-0.074,0.028c1.455-0.653,2.691-1.559,3.703-2.671l0.01-0.01
	c0.936-1.021,1.66-2.252,2.104-3.612l0.02-0.071C31.844,20.771,32,19.813,32,18.819c0-0.463-0.034-0.92-0.102-1.365l0.008,0.051
	c-0.203-1.394-0.682-2.646-1.379-3.744l0.021,0.039c-0.672-1.066-1.49-1.966-2.445-2.706l-0.023-0.018h0.003L18.059,3.38
	c-0.655-0.503-1.758-0.501-2.478,0.003c-0.729,0.509-0.812,1.353-0.164,1.887l-0.001,0.001l4.167,3.391L6.858,8.675
	c-1.05,0.001-2.06,0.691-2.259,1.564c-0.205,0.886,0.507,1.623,1.6,1.626v0.003l6.439-0.013L1.101,20.71
	c-1.083,0.829-1.433,2.212-0.751,3.085c0.693,0.89,2.167,0.892,3.263,0.005l6.271-5.132c0,0-0.091,0.692-0.083,1.108L9.798,19.772z
	 M25.918,22.095c-1.293,1.316-3.104,2.064-5.061,2.066c-1.959,0.006-3.769-0.735-5.063-2.051c-0.595-0.596-1.065-1.317-1.368-2.12
	l-0.014-0.041c-0.213-0.574-0.336-1.239-0.336-1.931c0-1.014,0.264-1.964,0.727-2.791l-0.015,0.029
	c0.404-0.718,0.918-1.323,1.525-1.819l0.013-0.009c1.255-1.024,2.853-1.577,4.527-1.58c1.676-0.002,3.272,0.547,4.531,1.567
	c0.639,0.521,1.159,1.139,1.535,1.823c0.372,0.657,0.62,1.429,0.693,2.253l0.002,0.021c0.013,0.146,0.021,0.315,0.021,0.486
	c0,0.691-0.125,1.355-0.354,1.968l0.013-0.038c-0.315,0.846-0.784,1.568-1.379,2.168l0,0L25.918,22.095z"/>
</svg>
