<?xml version="1.0" encoding="utf-8"?>
<!DOCTYPE svg PUBLIC "-//W3C//DTD SVG 1.1//EN" "http://www.w3.org/Graphics/SVG/1.1/DTD/svg11.dtd">
<svg version="1.1"
	xmlns="http://www.w3.org/2000/svg"
	xmlns:xlink="http://www.w3.org/1999/xlink" 
	viewBox="0 0 32 32">
	<path opacity="0.4" d="M10,21V8H9c-2.209,0-4,1.791-4,4v13c0,2.209,1.791,4,4,4h2h4v-8H10z"/>
	<path d="M27,30h-6c-0.552,0-1-0.448-1-1s0.448-1,1-1h5v-6H9c-1.654,0-3,1.346-3,3s1.346,3,3,3h2
		c0.552,0,1,0.448,1,1s-0.448,1-1,1H9c-2.757,0-5-2.243-5-5s2.243-5,5-5h18c0.552,0,1,0.448,1,1v8C28,29.552,27.552,30,27,30z"/>
	<path d="M21,32h-6c-0.552,0-1-0.448-1-1v-6c0-0.552,0.448-1,1-1h6c0.552,0,1,0.448,1,1v6C22,31.552,21.552,32,21,32
		z M16,30h4v-4h-4V30z"/>
	<path d="M9,21c-0.552,0-1-0.448-1-1V7c0-0.552,0.448-1,1-1s1,0.448,1,1v13C10,20.552,9.552,21,9,21z"/>
	<path d="M27,26H11c-0.552,0-1-0.448-1-1s0.448-1,1-1h16c0.552,0,1,0.448,1,1S27.552,26,27,26z"/>
	<path d="M5,26c-0.552,0-1-0.448-1-1V5c0-2.757,2.243-5,5-5h18c0.552,0,1,0.448,1,1v20c0,0.552-0.448,1-1,1
		s-1-0.448-1-1V2H9C7.346,2,6,3.346,6,5v20C6,25.552,5.552,26,5,26z"/>
</svg>
