<?xml version="1.0" encoding="utf-8"?>
<!DOCTYPE svg PUBLIC "-//W3C//DTD SVG 1.1//EN" "http://www.w3.org/Graphics/SVG/1.1/DTD/svg11.dtd">
<svg version="1.1"
	xmlns="http://www.w3.org/2000/svg"
	xmlns:xlink="http://www.w3.org/1999/xlink" 
	viewBox="0 0 32 32">
<path d="M25.334,2H6.667C4.092,2.006,2.007,4.092,2,6.666v18.667C2,27.9,4.1,30,6.667,30h18.667
	C27.9,30,30,27.9,30,25.333V6.666C30,4.099,27.9,2,25.334,2z M22.782,21.664c-0.233,0.563-0.603,1.058-1.077,1.44
	c-0.489,0.396-1.11,0.724-1.875,0.956c-0.763,0.236-1.671,0.356-2.723,0.356H9.604V8.082h7.936c1.467,0,2.643,0.33,3.524,1.003
	c0.886,0.676,1.327,1.685,1.327,3.045c0,0.822-0.201,1.528-0.605,2.111c-0.402,0.58-0.979,1.033-1.727,1.349v0.053
	c0.996,0.21,1.769,0.683,2.275,1.417c0.508,0.736,0.769,1.665,0.769,2.787c0,0.627-0.122,1.224-0.352,1.781l0.029,0.031
	L22.782,21.664z M19.543,17.639c-0.479-0.438-1.15-0.65-2.018-0.65h-5.043v5.096h5.057c0.862,0,1.539-0.224,2.018-0.676
	c0.479-0.45,0.725-1.09,0.725-1.914c-0.008-0.806-0.246-1.428-0.725-1.855h-0.021H19.543z M18.843,14.345
	c0.462-0.392,0.689-0.953,0.689-1.685c0-0.822-0.204-1.404-0.619-1.738c-0.411-0.333-1.005-0.505-1.783-0.505h-4.666v4.507h4.666
	c0.681,0,1.261-0.199,1.709-0.578L18.843,14.345z"/>
</svg>
