<?xml version="1.0" encoding="UTF-8"?>
<!DOCTYPE svg PUBLIC "-//W3C//DTD SVG 1.1//EN" "http://www.w3.org/Graphics/SVG/1.1/DTD/svg11.dtd">
<svg viewBox="0 0 32 32" version="1.1" xmlns="http://www.w3.org/2000/svg" xmlns:xlink="http://www.w3.org/1999/xlink" style="fill-rule:evenodd;clip-rule:evenodd;">
<path d="M16,1c8.279,0 15,6.721 15,15c0,8.279 -6.721,15 -15,15c-8.279,0 -15,-6.721 -15,-15c0,-8.279 6.721,-15 15,-15Zm4.755,12.066l2.547,-3.426c-4.044,-3.209 -10.221,-3.008 -13.777,0.998c-1.178,1.327 -1.936,3.059 -2.024,5.16c-0.121,2.922 1.192,5.629 3.238,7.082c3.871,2.748 9.083,2.085 12.798,-0.52l-2.276,-3.628c-2.732,2.125 -7.747,1.922 -8.094,-2.327c-0.347,-4.25 4.351,-5.464 7.588,-3.339Z"/>
</svg>