<?xml version="1.0" encoding="utf-8"?>
<!DOCTYPE svg PUBLIC "-//W3C//DTD SVG 1.1//EN" "http://www.w3.org/Graphics/SVG/1.1/DTD/svg11.dtd">
<svg version="1.1" 
	xmlns="http://www.w3.org/2000/svg"
	xmlns:xlink="http://www.w3.org/1999/xlink"
	viewBox="0 0 32 32">
  <path d="M31.382,12.762c-0.039-0.317-0.086-0.639-0.145-0.967c0,0-0.027-0.055-0.016-0.085
    c-0.052-0.291-0.128-0.635-0.235-1.015l-0.355-1.06c-0.462-1.187-1.222-2.574-2.481-3.906c-0.302-0.31-0.625-0.631-0.979-0.968
    c-4.177-3.97-11.141-5.18-17.393-2.925c0,0-9.231,3.246-9.278,10.494c-0.035,5.414,5.396,5.696,8.208,5.492
    c-0.089,0.36-0.18,0.712-0.271,1.052c-0.532,1.968-1.093,3.532-1.46,4.06c0.431,0.666,2.43,1.528,3.448,1.528
    c0.595,0,1.358-2.57,1.981-5.613c0.122-0.598,0.24-1.212,0.349-1.83c1.783-0.601,3.28-1.106,4.563-1.539l-0.592,3.36l3.143-1.636
    l3.129,1.661l-0.586-3.492l2.548-2.462l-3.502-0.525l-1.555-3.183l-1.58,3.169l-3.506,0.495l1.82,1.789
    c-1.152,0.385-2.597,0.859-3.681,1.185c0.431-2.678,0.688-5.209,0.581-6.287c-0.078-0.588-0.666-1.098-1.45-1.411
    c0,0-2.554-1.084-2.343,0.134l0.071,0.296c0.245,1.996-0.175,5.063-0.786,7.868c-2.087-0.006-5.427-0.487-5.403-3.508
    C3.66,8.544,8.643,3.456,16.938,3.874c5.536,0.279,8.404,3.725,9.66,6.441c0.053,0.115,0.1,0.228,0.147,0.34
    c0.037,0.104,0.07,0.213,0.109,0.327l0.286,1.108c0.055,0.278,0.1,0.554,0.138,0.808c0.048,0.324,0.078,0.652,0.094,0.979
    c-0.013,1.752-0.421,4.504-2.447,7.03c-0.45,0.561-1.632,1.597-1.632,1.597c-0.614,0.526-1.288,1.004-1.999,1.441
    c-5.769,3.545-14.186,4.17-16.457,1.343c0.008-0.008,0.016-0.016,0.024-0.024h-0.04c-0.086-0.148-0.423-0.745-0.456-1.121
    c-0.039-0.432-1.601,0.188-1.125,1.883c0.018,0.06,0.035,0.114,0.052,0.167c0.277,1.129,0.739,2.152,1.25,2.819
    c2.017,2.633,7.09,2.833,12.283,1.368c1.375-0.406,12.992-4.107,14.534-13.688C31.53,15.489,31.554,14.18,31.382,12.762z"/>
</svg>
