<?xml version="1.0" encoding="utf-8"?>
<!DOCTYPE svg PUBLIC "-//W3C//DTD SVG 1.1//EN" "http://www.w3.org/Graphics/SVG/1.1/DTD/svg11.dtd">
<svg version="1.1"
	xmlns="http://www.w3.org/2000/svg"
	xmlns:xlink="http://www.w3.org/1999/xlink"
	viewBox="0 0 32 32">
	<path d="M15.16,19.813c-2.788,0-5.049,2.261-5.049,5.049c0,2.788,2.261,5.049,5.049,5.049s5.049-2.261,5.049-5.049
		C20.209,22.074,17.948,19.813,15.16,19.813z"/>
	<path d="M21.445,18.845c1.495,1.562,2.414,3.679,2.414,6.017c0,2.961-1.475,5.566-3.727,7.138
		c4.167-1.284,7.617-4.417,9.159-8.211c2.136-5.25,0.144-9.197-3.19-12.781c0.105,0.459,0.163,0.949,0.163,1.438
		C26.255,15.492,24.224,18.05,21.445,18.845z"/>
	<path d="M15.735,12.455c0,2.137,1.734,3.861,3.861,3.861s3.871-1.734,3.871-3.861c0-2.136-1.734-3.861-3.861-3.861
		C17.479,8.594,15.735,10.319,15.735,12.455z"/>
	<path d="M8.501,30.467c-1.274-1.514-2.041-3.468-2.041-5.604c0-4.455,3.344-8.125,7.665-8.632
		c-0.737-1.073-1.178-2.376-1.178-3.775c0-3.679,2.979-6.649,6.659-6.649c0.307,0,0.604,0.019,0.891,0.057
		C18.322,3.986,16.147,2.079,14.432,0c0.872,9.121-8.307,5.806-11.708,14.218C0.454,19.852,2.504,26.817,8.501,30.467z"/>
</svg>
