<?xml version="1.0" encoding="utf-8"?>
<!DOCTYPE svg PUBLIC "-//W3C//DTD SVG 1.1//EN" "http://www.w3.org/Graphics/SVG/1.1/DTD/svg11.dtd">
<svg version="1.1"
	xmlns="http://www.w3.org/2000/svg"
	xmlns:xlink="http://www.w3.org/1999/xlink" 
	viewBox="0 0 32 32">
	<polygon opacity="0.4" points="4,7.8 4,27 10,27 10,13.4"/>
	<path d="M31,28H1c-0.552,0-1-0.448-1-1V5c0-0.552,0.448-1,1-1h30c0.552,0,1,0.448,1,1v22C32,27.552,31.552,28,31,28
		z M2,26h28V6H2V26z"/>
	<path d="M16,20c-0.245,0-0.49-0.09-0.682-0.269l-15-14c-0.404-0.377-0.426-1.01-0.049-1.413
		c0.377-0.405,1.01-0.426,1.413-0.049L16,17.632L30.318,4.269c0.403-0.376,1.037-0.355,1.413,0.049
		c0.377,0.403,0.355,1.036-0.049,1.413l-15,14C16.49,19.91,16.245,20,16,20z"/>
	<path d="M31,28c-0.245,0-0.49-0.089-0.682-0.269l-8.788-8.202c-0.404-0.377-0.426-1.01-0.049-1.413
		c0.377-0.404,1.01-0.426,1.413-0.049l8.788,8.202c0.404,0.377,0.426,1.009,0.049,1.413C31.534,27.893,31.267,28,31,28z"/>
	<path d="M1,28c-0.267,0-0.534-0.106-0.731-0.318c-0.377-0.404-0.355-1.036,0.049-1.413l8.786-8.2
		c0.403-0.376,1.037-0.356,1.413,0.049c0.377,0.404,0.355,1.036-0.049,1.413l-8.786,8.2C1.49,27.911,1.245,28,1,28z"/>
</svg>
