<?xml version="1.0" encoding="utf-8"?>
<!DOCTYPE svg PUBLIC "-//W3C//DTD SVG 1.1//EN" "http://www.w3.org/Graphics/SVG/1.1/DTD/svg11.dtd">
<svg version="1.1"
	xmlns="http://www.w3.org/2000/svg"
	xmlns:xlink="http://www.w3.org/1999/xlink" 
	viewBox="0 0 32 32">
	<path opacity="0.4" d="M6.455,25.717l0.002,0.001l0.015-0.021c0.009-0.014,0.019-0.027,0.028-0.041L8.972,22H8
		c-1.104,0-2-0.896-2-2V7.142c-1.464,0.379-2.608,1.553-2.917,3.045l0-0.001l-0.001,0.005c0,0.004-0.001,0.008-0.001,0.012
		L1.12,23.207C1.05,23.461,1,23.724,1,24c0,1.657,1.343,3,3,3C5.017,27,5.912,26.491,6.455,25.717z"/>
	<path d="M9,16c-1.654,0-3-1.346-3-3s1.346-3,3-3s3,1.346,3,3S10.654,16,9,16z M9,12c-0.551,0-1,0.449-1,1
		s0.449,1,1,1s1-0.449,1-1S9.551,12,9,12z"/>
	<path d="M17,12h-2c-0.552,0-1-0.448-1-1s0.448-1,1-1h2c0.552,0,1,0.448,1,1S17.552,12,17,12z"/>
	<circle cx="23" cy="11" r="1"/>
	<circle cx="25" cy="13" r="1"/>
	<circle cx="21" cy="13" r="1"/>
	<circle cx="23" cy="15" r="1"/>
	<path d="M28,28c-1.272,0-2.472-0.612-3.226-1.643c-0.02-0.024-0.039-0.049-0.057-0.076L20.469,20h-8.938
		l-4.203,6.216c-0.018,0.026-0.036,0.051-0.056,0.075l0.001,0.001C6.523,27.361,5.3,28,4,28c-2.206,0-4-1.794-4-4
		c0-0.318,0.044-0.637,0.139-0.998l1.953-12.948C2.583,7.675,4.642,6,7,6h12c0.552,0,1,0.448,1,1s-0.448,1-1,1H7
		c-1.413,0-2.647,1.001-2.936,2.383L2.108,23.355c-0.006,0.039-0.014,0.078-0.024,0.116C2.027,23.68,2,23.848,2,24
		c0,1.103,0.897,2,2,2c0.648,0,1.26-0.32,1.636-0.857c0.011-0.015,0.021-0.03,0.033-0.044l4.503-6.659
		C10.357,18.165,10.668,18,11,18h10c0.332,0,0.643,0.165,0.829,0.44l4.5,6.656h0c0.012,0.016,0.024,0.031,0.036,0.047
		C26.74,25.68,27.352,26,28,26c1.103,0,2-0.897,2-2c0-0.152-0.027-0.32-0.084-0.529c-0.01-0.038-0.019-0.077-0.024-0.116
		l-1.961-13.003C27.651,9.004,26.416,8,25,8h-2c-0.552,0-1-0.448-1-1s0.448-1,1-1h2c2.352,0,4.405,1.665,4.891,3.962
		c0.008,0.035,0.015,0.07,0.019,0.105l1.951,12.935C31.956,23.363,32,23.682,32,24C32,26.206,30.206,28,28,28z"/>
</svg>
