<?xml version="1.0" encoding="utf-8"?>
<!DOCTYPE svg PUBLIC "-//W3C//DTD SVG 1.1//EN" "http://www.w3.org/Graphics/SVG/1.1/DTD/svg11.dtd">
<svg viewBox="0 0 32 32" version="1.1" xmlns="http://www.w3.org/2000/svg" xmlns:xlink="http://www.w3.org/1999/xlink">
<g>
<path d="M16.862,21.441c-2.248,-0 -4.412,-0.608 -6.324,-1.931c-1.333,-0.923 -2.876,-3.005 -2.876,-6.535c0,-6.55 3.346,-8.94 10.069,-8.94l12.104,0l1.165,3.73l-12.347,0c-4.437,0 -7.076,0.346 -7.076,5.21c0,1.606 0.453,2.749 1.386,3.494c1.576,1.259 4.638,1.313 6.51,1.133c-0,-0 0.768,-2.47 0.894,-2.871c0.148,-0.469 0.084,-0.581 -0.379,-0.581l-3.14,-0c-0.893,-0 -1.77,-0.449 -1.77,-1.528c0,-1.042 0.816,-1.647 1.934,-1.647l6.671,0c0.978,0 1.977,0.14 1.467,1.689l-2.698,8.183c0,-0 -2.204,0.594 -5.59,0.594Z" style="fill-rule:nonzero;"/>
<path d="M24.418,22.83c-1.359,0.952 -3.374,1.478 -6.791,1.478c-5.891,0 -10.202,-2.116 -11.96,-6.22c-0.831,-1.94 -0.751,-4.138 -0.751,-7.111l-3.915,-0c-0,3.135 -0.054,5.593 0.784,7.857c2.2,5.94 7.863,9.131 15.472,9.131c7.364,-0 10.416,-2.1 12.405,-5.135l-5.244,-0Z" />
</g>
</svg>