<?xml version="1.0" encoding="utf-8"?>
<!DOCTYPE svg PUBLIC "-//W3C//DTD SVG 1.1//EN" "http://www.w3.org/Graphics/SVG/1.1/DTD/svg11.dtd">
<svg version="1.1"
	xmlns="http://www.w3.org/2000/svg"
	xmlns:xlink="http://www.w3.org/1999/xlink" 
	viewBox="0 0 32 32">
<path d="M31.396,14.575L17.425,0.605c-0.805-0.805-2.109-0.805-2.915,0l-3.246,3.246l2.442,2.443C14.099,6.106,14.538,6,15,6
	c1.657,0,3,1.343,3,3c0,0.463-0.106,0.902-0.294,1.293l3.999,3.999c0.392-0.187,0.831-0.293,1.294-0.293c1.657,0,3,1.343,3,3
	s-1.343,3-3,3s-3-1.343-3-3c0-0.463,0.104-0.902,0.292-1.293l-3.998-3.999C16.198,11.753,16.1,11.793,16,11.828v8.343
	c1.165,0.412,2,1.522,2,2.829c0,1.656-1.343,2.999-3,2.999S12,24.656,12,23c0-1.307,0.835-2.417,2-2.829v-8.343
	c-1.165-0.412-2-1.522-2-2.829c0-0.463,0.105-0.902,0.293-1.293L9.851,5.263l-9.247,9.246c-0.805,0.806-0.805,2.11,0,2.915
	l13.973,13.971c0.803,0.806,2.109,0.806,2.915,0l13.905-13.905C32.201,16.683,32.201,15.378,31.396,14.575L31.396,14.575z"/>
</svg>
