<?xml version="1.0" encoding="UTF-8" standalone="no"?><!DOCTYPE svg PUBLIC "-//W3C//DTD SVG 1.1//EN" "http://www.w3.org/Graphics/SVG/1.1/DTD/svg11.dtd"><svg width="100%" height="100%" viewBox="0 0 32 32" version="1.1" xmlns="http://www.w3.org/2000/svg" xmlns:xlink="http://www.w3.org/1999/xlink" xml:space="preserve" xmlns:serif="http://www.serif.com/" style="fill-rule:evenodd;clip-rule:evenodd;"><path d="M16.013,0.463c-8.744,0 -15.813,7.121 -15.813,15.931c-0,7.042 4.529,13.003 10.813,15.113c0.785,0.158 1.073,-0.343 1.073,-0.765c-0,-0.369 -0.026,-1.635 -0.026,-2.954c-4.399,0.95 -5.315,-1.899 -5.315,-1.899c-0.707,-1.846 -1.754,-2.321 -1.754,-2.321c-1.44,-0.976 0.105,-0.976 0.105,-0.976c1.597,0.106 2.435,1.635 2.435,1.635c1.413,2.427 3.691,1.741 4.607,1.319c0.131,-1.029 0.55,-1.741 0.995,-2.136c-3.508,-0.369 -7.199,-1.741 -7.199,-7.86c-0,-1.741 0.628,-3.165 1.623,-4.273c-0.157,-0.395 -0.707,-2.031 0.157,-4.22c-0,0 1.335,-0.422 4.346,1.635c1.289,-0.348 2.618,-0.526 3.953,-0.527c1.335,-0 2.696,0.185 3.953,0.527c3.011,-2.057 4.346,-1.635 4.346,-1.635c0.864,2.189 0.314,3.825 0.157,4.22c1.021,1.108 1.623,2.532 1.623,4.273c0,6.119 -3.691,7.464 -7.225,7.86c0.576,0.501 1.073,1.45 1.073,2.954c-0,2.136 -0.026,3.851 -0.026,4.378c0,0.422 0.288,0.923 1.073,0.765c6.284,-2.11 10.813,-8.071 10.813,-15.113c0.026,-8.81 -7.069,-15.931 -15.787,-15.931Z" style="fill:#fff;"/></svg>