<?xml version="1.0" encoding="UTF-8" standalone="no"?>
<!DOCTYPE svg PUBLIC "-//W3C//DTD SVG 1.1//EN" "http://www.w3.org/Graphics/SVG/1.1/DTD/svg11.dtd">
<svg width="100%" height="100%" viewBox="0 0 32 32" version="1.1" xmlns="http://www.w3.org/2000/svg" xmlns:xlink="http://www.w3.org/1999/xlink" xml:space="preserve" xmlns:serif="http://www.serif.com/" style="fill-rule:evenodd;clip-rule:evenodd;stroke-linejoin:round;stroke-miterlimit:2;">
<path d="M9.534,15.621l0,0.005l-0.408,1.789c-0.022,0.101 -0.122,0.175 -0.237,0.175l-0.492,0c-0.037,0 -0.07,0.025 -0.08,0.06c-0.454,1.558 -1.069,2.629 -1.882,3.272c-0.692,0.548 -1.544,0.803 -2.682,0.803c-1.024,0 -1.713,-0.332 -2.298,-0.989c-0.774,-0.867 -1.093,-2.287 -0.9,-3.998c0.35,-3.212 1.998,-6.453 5.173,-6.453c0.965,-0.009 1.723,0.292 2.251,0.893c0.557,0.636 0.841,1.593 0.842,2.846c-0.002,0.114 -0.096,0.205 -0.208,0.205l-2.326,0c-0.082,0 -0.156,-0.074 -0.155,-0.157c-0.018,-0.866 -0.273,-1.288 -0.778,-1.288c-0.892,-0 -1.418,1.223 -1.697,1.901c-0.39,0.947 -0.588,1.976 -0.549,3c0.019,0.477 0.095,1.148 0.543,1.426c0.397,0.246 0.964,0.083 1.307,-0.19c0.343,-0.273 0.619,-0.745 0.736,-1.175c0.016,-0.06 0.017,-0.107 0.002,-0.127c-0.017,-0.022 -0.062,-0.027 -0.097,-0.027l-0.597,0c-0.064,0 -0.127,-0.029 -0.166,-0.077c-0.032,-0.04 -0.044,-0.09 -0.033,-0.139l0.409,-1.792c0.02,-0.092 0.102,-0.161 0.203,-0.174l0,-0.004l3.919,-0c0.01,-0 0.019,-0 0.028,0.002c0.102,0.013 0.174,0.109 0.172,0.213l0,-0Z" />
<path d="M16.283,13.565c-0.002,0.112 -0.096,0.204 -0.208,0.204l-2.143,-0c-0.14,-0 -0.257,-0.115 -0.257,-0.256c-0,-0.631 -0.217,-0.939 -0.659,-0.939c-0.443,0 -0.728,0.275 -0.736,0.755c-0.01,0.534 0.29,1.02 1.142,1.856c1.122,1.063 1.571,2.006 1.55,3.251c-0.035,2.014 -1.39,3.315 -3.452,3.315c-1.053,0 -1.857,-0.284 -2.392,-0.846c-0.543,-0.57 -0.792,-1.406 -0.74,-2.486c0.002,-0.112 0.095,-0.203 0.208,-0.203l2.216,-0c0.06,-0 0.12,0.029 0.16,0.08c0.034,0.043 0.049,0.096 0.04,0.147c-0.024,0.389 0.043,0.68 0.194,0.841c0.098,0.105 0.233,0.157 0.402,0.157c0.409,0 0.649,-0.292 0.658,-0.801c0.008,-0.44 -0.13,-0.826 -0.881,-1.606c-0.969,-0.957 -1.838,-1.946 -1.811,-3.501c0.016,-0.902 0.37,-1.726 0.998,-2.322c0.664,-0.63 1.572,-0.962 2.626,-0.962c1.056,0.007 1.856,0.311 2.379,0.904c0.494,0.562 0.733,1.374 0.706,2.412l-0,-0Z" style="fill:#0e100f;fill-rule:nonzero;"/>
<path d="M22.923,21.372l0.014,-10.71c0.002,-0.112 -0.088,-0.204 -0.201,-0.204l-3.316,-0c-0.111,-0 -0.16,0.097 -0.192,0.161l-4.8,10.688l-0,0.002c-0,-0 -0.002,0.002 -0.002,0.002c-0.054,0.132 0.048,0.273 0.188,0.273l2.318,-0c0.125,-0 0.208,-0.039 0.249,-0.119l0.46,-1.117c0.057,-0.149 0.067,-0.163 0.228,-0.163l2.215,0c0.154,0 0.157,0.003 0.154,0.155l-0.049,1.039c-0.002,0.113 0.088,0.205 0.2,0.205l2.341,-0c0.06,-0 0.116,-0.026 0.153,-0.07c0.034,-0.04 0.047,-0.09 0.04,-0.142Zm-4.102,-3.576c-0.022,0 -0.039,-0 -0.052,-0.001c-0.035,-0.004 -0.058,-0.037 -0.049,-0.071c0.004,-0.016 0.01,-0.036 0.02,-0.062l1.66,-4.152c0.015,-0.041 0.033,-0.081 0.052,-0.12c0.027,-0.056 0.06,-0.06 0.07,-0.018c0.009,0.035 -0.191,4.263 -0.191,4.263c-0.015,0.158 -0.022,0.165 -0.177,0.178l-1.331,-0.016l-0.003,0l0.001,-0.001Z" style="fill:#0e100f;fill-rule:nonzero;"/>
<path d="M27.646,10.458l-1.76,-0c-0.093,-0 -0.197,0.05 -0.222,0.161c0,0 -2.45,10.747 -2.45,10.748c-0.01,0.049 0.001,0.098 0.034,0.139c0.038,0.048 0.102,0.078 0.166,0.078l2.2,-0c0.118,-0 0.199,-0.059 0.221,-0.161c-0,0 0.266,-1.214 0.267,-1.218c0.019,-0.095 -0.014,-0.168 -0.098,-0.213c-0.04,-0.021 -0.079,-0.041 -0.118,-0.062l-0.382,-0.201l-0.379,-0.2c-0.049,-0.025 -0.098,-0.051 -0.147,-0.077c-0.024,-0.012 -0.039,-0.038 -0.039,-0.065c0.001,-0.041 0.035,-0.074 0.076,-0.074l1.205,0.005c0.361,0.002 0.722,-0.024 1.076,-0.09c2.497,-0.465 4.155,-2.486 4.203,-5.236c0.041,-2.346 -1.255,-3.535 -3.851,-3.535l-0.002,0.001Zm-0.599,6.396l-0.047,-0c-0.106,-0 -0.125,-0.012 -0.128,-0.016c-0.002,-0.003 0.695,-3.095 0.696,-3.1c0.018,-0.089 0.017,-0.14 -0.038,-0.171c-0.07,-0.039 -1.087,-0.581 -1.087,-0.581c-0.025,-0.013 -0.039,-0.038 -0.039,-0.066c0.001,-0.04 0.034,-0.074 0.075,-0.074l1.609,0c0.501,0.016 0.78,0.469 0.767,1.242c-0.023,1.339 -0.653,2.718 -1.808,2.766Z" style="fill:#0e100f;fill-rule:nonzero;"/>
</svg>