<?xml version="1.0" encoding="utf-8"?>
<!DOCTYPE svg PUBLIC "-//W3C//DTD SVG 1.1//EN" "http://www.w3.org/Graphics/SVG/1.1/DTD/svg11.dtd">
<svg version="1.1"
	xmlns="http://www.w3.org/2000/svg"
	xmlns:xlink="http://www.w3.org/1999/xlink" 
	viewBox="0 0 32 32">
	<path d="M16,30c-0.252,0-0.504-0.094-0.697-0.283L2.646,17.373C0.938,15.666,0,13.406,0,11s0.938-4.664,2.637-6.364
		C4.338,2.937,6.598,2,9.002,2c2.402,0,4.662,0.937,6.361,2.637c0.225,0.224,0.438,0.46,0.637,0.71
		c0.199-0.25,0.412-0.486,0.637-0.71C18.336,2.937,20.596,2,22.998,2c2.404,0,4.664,0.937,6.365,2.637
		C31.063,6.337,32,8.597,32,11.001c0,2.405-0.938,4.664-2.637,6.364l-1.275,1.145c-0.414,0.367-1.047,0.334-1.412-0.079
		c-0.369-0.412-0.334-1.044,0.078-1.412l1.234-1.106C29.271,14.628,30,12.871,30,11s-0.729-3.627-2.051-4.95
		C26.627,4.728,24.869,4,22.998,4c-1.867,0-3.625,0.728-4.947,2.051c-0.455,0.455-0.852,0.983-1.176,1.571
		c-0.354,0.636-1.396,0.636-1.75,0c-0.324-0.588-0.721-1.116-1.176-1.57C12.627,4.729,10.869,4,9.002,4
		C7.131,4,5.373,4.729,4.051,6.051C2.729,7.374,2,9.131,2,11s0.729,3.627,2.051,4.95L15.996,27.6l7.857-7.754
		c0.393-0.389,1.027-0.385,1.414,0.01c0.389,0.393,0.385,1.025-0.01,1.414l-8.557,8.443C16.508,29.904,16.254,30,16,30z"/>
</svg>
