<?xml version="1.0" encoding="UTF-8" standalone="no"?><!DOCTYPE svg PUBLIC "-//W3C//DTD SVG 1.1//EN" "http://www.w3.org/Graphics/SVG/1.1/DTD/svg11.dtd"><svg width="100%" height="100%" viewBox="0 0 32 32" version="1.1" xmlns="http://www.w3.org/2000/svg" xmlns:xlink="http://www.w3.org/1999/xlink" xml:space="preserve" xmlns:serif="http://www.serif.com/" style="fill-rule:evenodd;clip-rule:evenodd;"><path d="M11.427,22.58l-10.667,-0c-0.01,-0.004 -0.019,-0.01 -0.03,-0.012c-0.434,-0.084 -0.73,-0.44 -0.73,-0.881l-0,-11.378c-0,-0.497 0.392,-0.889 0.887,-0.889l10.405,0c0.495,0 0.888,0.392 0.888,0.889c0,3.795 0,7.59 -0,11.385c-0,0.389 -0.245,0.725 -0.616,0.845c-0.045,0.015 -0.091,0.027 -0.137,0.041Zm-3.198,-9.158l0.066,2.873c-0.019,-0.009 -0.024,-0.019 -0.03,-0.028c-0.501,-0.93 -1.002,-1.86 -1.501,-2.79c-0.024,-0.044 -0.048,-0.059 -0.097,-0.058c-0.422,0.002 -0.844,0.001 -1.267,0.001c-0.021,-0 -0.043,0.002 -0.065,0.003l0,5.563l1.449,-0l-0.066,-2.869c0.023,0.016 0.034,0.035 0.044,0.054c0.495,0.918 0.99,1.836 1.483,2.755c0.027,0.049 0.055,0.067 0.112,0.067c0.414,-0.003 0.827,-0.002 1.24,-0.002l0.08,0l-0,-5.569l-1.448,-0Zm-5.391,0l-0,5.565l1.443,0l-0,-5.565l-1.443,0Zm29.162,-2.549l-1.142,0l0,11.51l-1.339,-0l-0,-11.505l-1.201,-0l-0,-1.402l0.089,-0c1.169,-0 2.338,-0 3.506,-0.001c0.029,0 0.058,-0.001 0.087,-0.002l-0,1.4Zm-8.609,-1.394l1.356,-0c0.022,0.111 0.044,0.223 0.066,0.336c0.225,1.181 0.451,2.362 0.675,3.544c0.169,0.885 0.344,1.769 0.503,2.656c0.1,0.557 0.175,1.118 0.262,1.677c0.004,0.027 0.01,0.052 0.023,0.078l0,-8.289l1.182,-0l0,12.902c-0.023,0.001 -0.048,0.003 -0.074,0.003c-0.304,0.001 -0.609,-0.002 -0.913,0.003c-0.067,0.001 -0.085,-0.024 -0.098,-0.083c-0.227,-0.997 -0.455,-1.994 -0.684,-2.991c-0.262,-1.144 -0.531,-2.286 -0.783,-3.432c-0.103,-0.464 -0.17,-0.935 -0.253,-1.402c-0.023,-0.129 -0.046,-0.258 -0.078,-0.386l0,8.288l-1.184,-0l-0,-12.904Zm-5.079,-0.003l0.07,-0c0.64,-0 1.28,-0.006 1.92,0.001c0.474,0.005 0.897,0.148 1.22,0.515c0.236,0.268 0.358,0.591 0.409,0.939c0.029,0.202 0.046,0.407 0.047,0.61c0.004,1.038 0.002,2.075 0.002,3.113c-0,0.237 -0.026,0.47 -0.105,0.695c-0.112,0.321 -0.314,0.574 -0.597,0.762c-0.012,0.009 -0.025,0.017 -0.038,0.026c-0.001,0.002 -0.002,0.004 -0.003,0.005c0.093,0.074 0.189,0.143 0.277,0.222c0.287,0.261 0.441,0.591 0.485,0.973c0.012,0.097 0.016,0.195 0.016,0.292c0.001,1.04 -0.001,2.08 0.002,3.12c0,0.335 0.015,0.67 0.103,0.997c0.014,0.049 0.028,0.099 0.045,0.147c0.065,0.182 0.081,0.317 0.058,0.529l-0.069,0c-0.26,0 -0.52,-0.003 -0.78,0.001c-0.133,0.002 -0.237,-0.05 -0.322,-0.146c-0.147,-0.164 -0.212,-0.367 -0.263,-0.575c-0.066,-0.268 -0.092,-0.543 -0.093,-0.819c-0.001,-1.148 -0.001,-2.297 -0,-3.446c-0,-0.149 -0.021,-0.292 -0.096,-0.424c-0.091,-0.162 -0.229,-0.248 -0.418,-0.247c-0.167,0.001 -0.333,0.001 -0.506,0.001l0,5.614l-1.364,-0l-0,-12.905Zm1.367,1.385l-0,4.583c0.184,-0 0.364,0.006 0.543,-0.002c0.161,-0.008 0.272,-0.098 0.339,-0.243c0.057,-0.124 0.076,-0.256 0.076,-0.389c0.001,-1.127 0.003,-2.253 -0.002,-3.379c-0,-0.117 -0.029,-0.238 -0.064,-0.351c-0.039,-0.125 -0.136,-0.21 -0.269,-0.217c-0.206,-0.01 -0.413,-0.002 -0.623,-0.002Zm-4.719,11.521l-1.341,0l-0,-12.903c0.023,-0.001 0.046,-0.003 0.069,-0.003c0.634,-0 1.267,-0.006 1.9,0.001c0.488,0.006 0.922,0.155 1.251,0.537c0.213,0.248 0.333,0.541 0.385,0.858c0.033,0.201 0.055,0.406 0.056,0.609c0.005,1.191 0.004,2.382 0.001,3.573c-0,0.354 -0.055,0.699 -0.202,1.024c-0.242,0.533 -0.665,0.83 -1.239,0.898c-0.261,0.031 -0.527,0.017 -0.791,0.024c-0.027,0.001 -0.053,0 -0.089,0c0,1.795 0,3.587 0,5.382Zm-0,-6.669c0.217,-0 0.428,0.005 0.638,-0.003c0.116,-0.004 0.2,-0.076 0.257,-0.178c0.071,-0.128 0.088,-0.27 0.089,-0.412c0.001,-1.224 0.002,-2.448 -0.002,-3.672c-0.001,-0.124 -0.028,-0.252 -0.067,-0.37c-0.051,-0.149 -0.171,-0.221 -0.331,-0.221c-0.175,0.001 -0.351,0 -0.526,0.001c-0.019,-0 -0.038,0.002 -0.058,0.004l-0,4.851Z" style="fill:#fff;fill-rule:nonzero;"/></svg>