<?xml version="1.0" encoding="utf-8"?>
<!DOCTYPE svg PUBLIC "-//W3C//DTD SVG 1.1//EN" "http://www.w3.org/Graphics/SVG/1.1/DTD/svg11.dtd">
<svg version="1.1"
	xmlns="http://www.w3.org/2000/svg"
	xmlns:xlink="http://www.w3.org/1999/xlink"
	viewBox="0 0 32 32">
<path d="M31.904,9.404c-0.08-1.703-0.35-2.865-0.744-3.884c-0.408-1.052-0.957-1.945-1.846-2.835
	c-0.889-0.889-1.779-1.439-2.834-1.845c-1.021-0.396-2.182-0.665-3.885-0.744C20.889,0.016,20.348,0,16,0
	c-4.347,0-4.889,0.02-6.596,0.096C7.7,0.176,6.54,0.444,5.52,0.84C4.468,1.248,3.575,1.796,2.685,2.685
	C1.795,3.574,1.246,4.466,0.84,5.52C0.444,6.54,0.175,7.7,0.096,9.404C0.016,11.111,0,11.653,0,16c0,4.348,0.02,4.889,0.096,6.596
	c0.08,1.703,0.348,2.864,0.744,3.885c0.408,1.051,0.956,1.944,1.845,2.834c0.889,0.889,1.781,1.439,2.835,1.846
	c1.021,0.395,2.181,0.665,3.884,0.744C11.111,31.984,11.653,32,16,32c4.348,0,4.889-0.02,6.596-0.096
	c1.703-0.08,2.864-0.35,3.885-0.744c1.051-0.408,1.944-0.957,2.834-1.846c0.889-0.889,1.439-1.779,1.846-2.834
	c0.395-1.021,0.665-2.182,0.744-3.885C31.984,20.889,32,20.348,32,16C32,11.653,31.98,11.111,31.904,9.404z M29.02,22.467
	c-0.082,1.561-0.342,2.407-0.562,2.969c-0.299,0.75-0.64,1.28-1.199,1.844c-0.559,0.559-1.099,0.904-1.84,1.195
	c-0.56,0.219-1.42,0.479-2.979,0.551c-1.699,0.076-2.199,0.093-6.479,0.093c-4.281,0-4.781-0.021-6.479-0.099
	C7.92,28.938,7.06,28.678,6.5,28.458c-0.759-0.299-1.28-0.64-1.839-1.199c-0.561-0.559-0.92-1.099-1.2-1.84
	c-0.22-0.56-0.479-1.42-0.56-2.979C2.841,20.759,2.82,20.24,2.82,15.98c0-4.261,0.021-4.781,0.081-6.481
	c0.081-1.56,0.34-2.419,0.56-2.979c0.28-0.76,0.639-1.28,1.2-1.841C5.22,4.12,5.741,3.76,6.5,3.482
	c0.56-0.221,1.401-0.481,2.961-0.561c1.7-0.06,2.2-0.08,6.479-0.08L16,2.88c4.271,0,4.779,0.021,6.467,0.095
	c1.561,0.073,2.407,0.332,2.969,0.553c0.75,0.289,1.28,0.636,1.844,1.195c0.559,0.56,0.904,1.092,1.195,1.841
	c0.219,0.563,0.479,1.409,0.551,2.969c0.076,1.688,0.093,2.195,0.093,6.467C29.118,20.271,29.098,20.779,29.02,22.467z"/>
<path d="M16,7.784c-4.54,0-8.216,3.68-8.216,8.216c0,4.54,3.68,8.216,8.216,8.216c4.54,0,8.216-3.68,8.216-8.216
	C24.216,11.46,20.536,7.784,16,7.784z M16,21.333c-2.947,0-5.333-2.388-5.333-5.333c0-2.946,2.387-5.333,5.333-5.333
	c2.945,0,5.333,2.387,5.333,5.333C21.333,18.945,18.945,21.333,16,21.333z"/>
<path d="M26.461,7.46c0,1.06-0.861,1.92-1.92,1.92c-1.061,0-1.92-0.861-1.92-1.92s0.861-1.919,1.92-1.919
	C25.598,5.54,26.461,6.401,26.461,7.46z"/>
</svg>
