<?xml version="1.0" encoding="UTF-8" standalone="no"?><!DOCTYPE svg PUBLIC "-//W3C//DTD SVG 1.1//EN" "http://www.w3.org/Graphics/SVG/1.1/DTD/svg11.dtd"><svg width="100%" height="100%" viewBox="0 0 32 32" version="1.1" xmlns="http://www.w3.org/2000/svg" xmlns:xlink="http://www.w3.org/1999/xlink" xml:space="preserve" xmlns:serif="http://www.serif.com/" style="fill-rule:evenodd;clip-rule:evenodd;"><g><path d="M22.963,19.298c-9.135,8.149 -16.605,0.339 -17.763,-2.367c0.685,4.697 3.849,8.898 8.628,10.516c3.611,1.222 9.371,1.193 11.955,-3.459l-2.82,-4.69Z" style="fill:#fff;fill-opacity:0.4;fill-rule:nonzero;"/><path d="M5.151,8.014c-2.18,-2.275 -4.204,-4.353 -4.475,-4.603c-0.534,-0.49 -0.959,-1.095 -0.486,-1.694c0.491,-0.587 1.169,-0.296 1.761,0.127c0.301,0.215 2.785,1.788 5.483,3.465c2.609,-2.426 6.105,-3.911 9.944,-3.911c8.062,0 14.608,6.546 14.608,14.608c-0,8.062 -6.546,14.608 -14.608,14.608c-8.062,-0 -14.608,-6.546 -14.608,-14.608c0,-2.949 0.876,-5.695 2.381,-7.992Zm0.711,0.743c-1.325,2.099 -2.092,4.585 -2.092,7.249c0,7.511 6.098,13.608 13.608,13.608c7.51,-0 13.608,-6.097 13.608,-13.608c-0,-7.51 -6.098,-13.608 -13.608,-13.608c-3.478,0 -6.653,1.308 -9.061,3.459c2.293,1.419 4.587,2.817 5.706,3.444c1.759,0.984 4.392,3.078 5.262,5.184l0.009,0.002c0.087,0.016 0.168,0.055 0.235,0.113c-0,0 2.421,2.1 3.475,3.163c0.279,0.282 0.468,0.518 0.548,0.654c0.795,0.002 1.631,0.509 2.22,1.586c1.165,2.126 0.307,5.031 -2.643,6.7c1.533,-1.973 -0.959,-3.278 -1.576,-5.191c-0.054,-0.165 -0.095,-0.331 -0.121,-0.495c-0.151,-0.053 -0.417,-0.188 -0.744,-0.399c-1.257,-0.813 -3.812,-2.748 -3.812,-2.748c-0.03,-0.022 -0.057,-0.048 -0.081,-0.077c-2.279,-0.335 -4.972,-2.551 -6.332,-4.107c-0.852,-0.975 -2.721,-2.96 -4.601,-4.929Zm13.709,7.21c-0.021,0.404 -0.136,0.798 -0.363,1.174c-0.275,0.257 -0.58,0.436 -0.907,0.547c0.844,0.629 2.144,1.582 2.93,2.09c0.095,0.061 0.195,0.121 0.279,0.169c0.135,-0.389 0.403,-0.763 0.846,-1.109c0.055,-0.042 0.11,-0.081 0.167,-0.117c-0.156,-0.169 -0.413,-0.439 -0.667,-0.681c-0.7,-0.666 -1.647,-1.511 -2.285,-2.073Z" style="fill:#fff;"/></g></svg>