<?xml version="1.0" encoding="utf-8"?>
<!DOCTYPE svg PUBLIC "-//W3C//DTD SVG 1.1//EN" "http://www.w3.org/Graphics/SVG/1.1/DTD/svg11.dtd">
<svg version="1.1"
	xmlns="http://www.w3.org/2000/svg"
	xmlns:xlink="http://www.w3.org/1999/xlink"
	viewBox="0 0 32 32">
<path d="M1,28c-0.162,0-0.324-0.039-0.472-0.118C0.203,27.708,0,27.369,0,27V5c0-1.654,1.346-3,3-3h26
	c1.654,0,3,1.346,3,3v16c0,1.654-1.346,3-3,3H11c-0.552,0-1-0.448-1-1s0.448-1,1-1h18c0.551,0,1-0.449,1-1V5c0-0.551-0.449-1-1-1H3
	C2.449,4,2,4.449,2,5v20.131l4.445-2.963c0.459-0.307,1.08-0.183,1.387,0.277c0.306,0.459,0.182,1.081-0.277,1.387l-6,4
	C1.387,27.943,1.194,28,1,28z"/>
<path d="M15.22,14.633h-4.884c0.088,0.4,0.296,0.716,0.624,0.948c0.328,0.232,0.736,0.348,1.224,0.348
	c0.336,0,0.634-0.05,0.894-0.15c0.26-0.1,0.502-0.258,0.726-0.474l0.996,1.08c-0.608,0.696-1.496,1.044-2.664,1.044
	c-0.728,0-1.372-0.142-1.932-0.426c-0.56-0.284-0.992-0.678-1.296-1.182c-0.304-0.504-0.456-1.076-0.456-1.716
	c0-0.632,0.15-1.202,0.45-1.71c0.3-0.508,0.712-0.904,1.236-1.188c0.524-0.284,1.11-0.426,1.758-0.426
	c0.632,0,1.204,0.136,1.716,0.408c0.512,0.272,0.914,0.662,1.206,1.17c0.292,0.508,0.438,1.098,0.438,1.77
	C15.256,14.153,15.244,14.321,15.22,14.633z M10.84,12.558c-0.288,0.24-0.464,0.568-0.528,0.984h3.18
	c-0.064-0.408-0.24-0.734-0.528-0.978s-0.64-0.366-1.056-0.366C11.484,12.197,11.128,12.317,10.84,12.558z"/>
<path d="M22.366,11.501c0.492,0.48,0.738,1.192,0.738,2.136v3.696h-1.872v-3.408c0-0.512-0.112-0.894-0.336-1.146
	c-0.224-0.252-0.548-0.378-0.972-0.378c-0.472,0-0.848,0.146-1.128,0.438c-0.28,0.292-0.42,0.726-0.42,1.302v3.192h-1.872v-6.456
	h1.788v0.756c0.248-0.271,0.556-0.481,0.924-0.63c0.368-0.148,0.772-0.222,1.212-0.222C21.228,10.782,21.874,11.021,22.366,11.501z"/>
</svg>
