<?xml version="1.0" encoding="utf-8"?>
<!DOCTYPE svg PUBLIC "-//W3C//DTD SVG 1.1//EN" "http://www.w3.org/Graphics/SVG/1.1/DTD/svg11.dtd">
<svg version="1.1"
	xmlns="http://www.w3.org/2000/svg"
	xmlns:xlink="http://www.w3.org/1999/xlink" 
	viewBox="0 0 32 32">
	<path d="M1,28c-0.162,0-0.324-0.039-0.472-0.118C0.203,27.708,0,27.369,0,27V5c0-1.654,1.346-3,3-3h26
		c1.654,0,3,1.346,3,3v16c0,1.654-1.346,3-3,3H11c-0.552,0-1-0.447-1-1s0.448-1,1-1h18c0.552,0,1-0.448,1-1V5c0-0.551-0.448-1-1-1H3
		C2.449,4,2,4.449,2,5v20.132l4.445-2.964c0.459-0.307,1.08-0.182,1.387,0.277c0.306,0.46,0.182,1.08-0.277,1.387l-6,4
		C1.387,27.943,1.194,28,1,28z"/>
	<path d="M13.528,11.021h1.656v1.44h-1.608v4.872h-1.872v-4.872h-0.996v-1.44h0.996v-0.288
		c0-0.736,0.218-1.32,0.654-1.752s1.05-0.648,1.842-0.648c0.28,0,0.546,0.03,0.798,0.09s0.462,0.146,0.63,0.258l-0.492,1.356
		C14.92,9.886,14.668,9.81,14.38,9.81c-0.568,0-0.852,0.312-0.852,0.936V11.021z"/>
	<path d="M19.773,11.021c0.381-0.16,0.818-0.24,1.314-0.24v1.728c-0.208-0.016-0.348-0.024-0.42-0.024
		c-0.536,0-0.956,0.15-1.26,0.45c-0.305,0.3-0.456,0.75-0.456,1.35v3.048H17.08v-6.456h1.788v0.852
		C19.092,11.417,19.395,11.182,19.773,11.021z"/>
</svg>
