<?xml version="1.0" encoding="utf-8"?>
<!DOCTYPE svg PUBLIC "-//W3C//DTD SVG 1.1//EN" "http://www.w3.org/Graphics/SVG/1.1/DTD/svg11.dtd">
<svg version="1.1"
	xmlns="http://www.w3.org/2000/svg"
	xmlns:xlink="http://www.w3.org/1999/xlink" 
	viewBox="0 0 32 32">
	<path d="M1,28c-0.162,0-0.324-0.039-0.472-0.118C0.203,27.708,0,27.369,0,27V5c0-1.654,1.346-3,3-3h26
		c1.654,0,3,1.346,3,3v16c0,1.654-1.346,3-3,3H11c-0.552,0-1-0.447-1-1s0.448-1,1-1h18c0.553,0,1-0.448,1-1V5c0-0.552-0.447-1-1-1H3
		C2.449,4,2,4.448,2,5v20.132l4.445-2.964c0.459-0.307,1.08-0.184,1.387,0.277c0.306,0.46,0.182,1.08-0.277,1.387l-6,4
		C1.387,27.943,1.194,28,1,28z"/>
	<path d="M9.459,18.396l0.504-1.355c0.216,0.152,0.48,0.229,0.792,0.229c0.24,0,0.428-0.078,0.564-0.233
		c0.136-0.156,0.204-0.392,0.204-0.702V9.878h1.872v6.442c0,0.754-0.214,1.348-0.642,1.783c-0.428,0.437-1.026,0.653-1.794,0.653
		C10.304,18.757,9.804,18.639,9.459,18.396z M11.62,8.678c-0.216-0.199-0.324-0.447-0.324-0.744c0-0.295,0.108-0.543,0.324-0.744
		c0.216-0.198,0.496-0.299,0.84-0.299c0.344,0,0.624,0.096,0.84,0.287c0.216,0.192,0.324,0.432,0.324,0.721
		c0,0.313-0.108,0.569-0.324,0.773c-0.216,0.204-0.496,0.307-0.84,0.307C12.116,8.979,11.835,8.877,11.62,8.678z"/>
	<path d="M20.578,10.195c0.492,0.274,0.878,0.664,1.158,1.164c0.279,0.5,0.42,1.082,0.42,1.746
		s-0.141,1.246-0.42,1.746c-0.28,0.5-0.666,0.888-1.158,1.164c-0.492,0.274-1.038,0.414-1.639,0.414
		c-0.823,0-1.473-0.262-1.943-0.781v3.013h-1.872V9.877h1.788v0.744c0.464-0.561,1.14-0.84,2.027-0.84
		C19.54,9.782,20.086,9.919,20.578,10.195z M19.798,14.408c0.308-0.324,0.462-0.758,0.462-1.303c0-0.543-0.154-0.979-0.462-1.301
		c-0.308-0.324-0.702-0.486-1.182-0.486s-0.874,0.162-1.183,0.486c-0.309,0.322-0.461,0.758-0.461,1.301
		c0,0.545,0.152,0.979,0.461,1.303s0.703,0.486,1.183,0.486S19.49,14.73,19.798,14.408z"/>
</svg>
