<?xml version="1.0" encoding="utf-8"?>
<!DOCTYPE svg PUBLIC "-//W3C//DTD SVG 1.1//EN" "http://www.w3.org/Graphics/SVG/1.1/DTD/svg11.dtd">
<svg version="1.1"
	xmlns="http://www.w3.org/2000/svg"
	xmlns:xlink="http://www.w3.org/1999/xlink" 
	viewBox="0 0 32 32">
  <path d="M25.539,15.818c1.202,0.42,1.804,1.141,1.804,2.161c0,0.67-0.25,1.202-0.748,1.598
    c-0.495,0.394-1.205,0.64-2.127,0.64c-0.923,0-1.774-0.267-2.561-0.706c0.009-0.232,0.071-0.487,0.183-0.765
    c0.112-0.277,0.246-0.497,0.399-0.659c0.722,0.375,1.352,0.563,1.884,0.563c0.252,0,0.446-0.041,0.583-0.126
    c0.137-0.084,0.204-0.198,0.204-0.343c0-0.269-0.209-0.471-0.623-0.604l-0.748-0.281c-1.129-0.411-1.692-1.082-1.692-2.013
    c0-0.68,0.236-1.219,0.712-1.618c0.474-0.398,1.112-0.742,1.917-0.742c0.396,0,0.834,0.056,1.313,0.168
    c0.479,0.112,0.871,0.388,1.179,0.539c0.018,0.251-0.031,0.526-0.148,0.827c-0.117,0.299-0.263,0.512-0.434,0.637
    c-0.76-0.34-1.392-0.51-1.897-0.51c-0.183,0-0.317,0.04-0.413,0.121c-0.096,0.08-0.142,0.184-0.142,0.309
    c0,0.214,0.171,0.384,0.516,0.51L25.539,15.818L25.539,15.818z"/>
  <path d="M19.535,15.818c1.203,0.42,1.802,1.141,1.802,2.161c0,0.67-0.249,1.202-0.743,1.598
    c-0.499,0.394-1.207,0.64-2.129,0.64s-1.775-0.267-2.561-0.706c0.008-0.232,0.07-0.487,0.183-0.765
    c0.113-0.277,0.246-0.497,0.398-0.659c0.723,0.375,1.35,0.563,1.885,0.563c0.252,0,0.447-0.041,0.581-0.126
    c0.136-0.084,0.205-0.198,0.205-0.343c0-0.269-0.209-0.471-0.624-0.604l-0.746-0.281c-1.129-0.411-1.693-1.082-1.693-2.013
    c0-0.68,0.236-1.219,0.711-1.618c0.475-0.398,1.112-0.742,1.917-0.742c0.396,0,0.837,0.056,1.313,0.168
    c0.479,0.112,0.872,0.388,1.179,0.539c0.021,0.251-0.029,0.526-0.147,0.827c-0.117,0.299-0.262,0.512-0.434,0.637
    c-0.76-0.34-1.392-0.51-1.898-0.51c-0.181,0-0.317,0.04-0.412,0.121c-0.095,0.08-0.142,0.184-0.142,0.309
    c0,0.214,0.172,0.384,0.516,0.51L19.535,15.818L19.535,15.818z"/>
  <path d="M15.157,15.913c0-0.412-0.064-0.792-0.196-1.142c-0.13-0.349-0.318-0.647-0.562-0.898
    c-0.245-0.251-0.541-0.447-0.888-0.591c-0.348-0.144-0.739-0.358-1.172-0.358c-0.515,0-0.964,0.233-1.348,0.412
    c-0.385,0.18-0.7,0.425-0.948,0.738c-0.249,0.313-0.434,0.683-0.556,1.108c-0.122,0.425-0.184,0.888-0.184,1.389
    c0,0.519,0.049,0.998,0.149,1.437c0.099,0.437,0.27,0.818,0.509,1.14c0.239,0.322,0.55,0.573,0.934,0.751
    c0.386,0.18,0.861,0.317,1.43,0.317c1.049,0,1.935-0.305,2.658-0.815c-0.072-0.517-0.258-0.929-0.553-1.232
    c-0.371,0.139-0.696,0.238-0.981,0.299c-0.282,0.062-0.532,0.093-0.749,0.093c-0.432,0-0.742-0.11-0.931-0.332
    c-0.188-0.224-0.292-0.484-0.311-0.882h3.524C15.099,16.967,15.157,16.459,15.157,15.913L15.157,15.913z M11.445,16.005
    c0.028-0.456,0.111-0.944,0.249-1.146c0.14-0.202,0.352-0.302,0.64-0.302c0.294,0,0.516,0.107,0.665,0.321
    c0.147,0.214,0.222,0.647,0.222,0.979v0.148H11.445L11.445,16.005L11.445,16.005z"/>
  <path d="M31.06,16.898c-0.383,0.334-0.604,0.815-0.604,1.444v2.346c0,0.778-0.239,1.372-0.78,1.778
    c-0.539,0.406-1.172,0.608-1.891,0.627l-0.428-0.002v-1.168c0.376-0.11,0.531-0.237,0.681-0.383
    c0.27-0.245,0.479-0.646,0.479-1.196v-1.894c0.009-0.643,0.06-1.146,0.295-1.512c0.232-0.363,0.69-0.683,1.373-0.958
    c-0.753-0.344-1.256-0.793-1.516-1.347c-0.148-0.329-0.152-0.771-0.152-1.33V11.57c0-0.573-0.189-0.975-0.419-1.203
    c-0.149-0.151-0.323-0.27-0.74-0.361V8.911c0.509,0.005,0.766,0,1.062,0c0.456-0.004,0.837,0.245,1.168,0.505
    c0.362,0.284,0.62,0.669,0.771,1.153c0.088,0.28,0.1,0.547,0.1,0.802v2.006c0,0.709,0.209,1.236,0.564,1.58
    c0.204,0.2,0.489,0.383,0.979,0.547v0.907C31.563,16.531,31.292,16.693,31.06,16.898z"/>
  <path d="M4.108,8.911v0.002C3.961,8.912,3.831,8.912,3.724,8.912C3.269,8.908,2.888,9.157,2.556,9.417
    c-0.363,0.285-0.674,0.656-0.771,1.153c-0.055,0.292-0.044,0.547-0.044,0.802v2.007c0,0.709-0.263,1.236-0.621,1.581
    C0.918,15.158,0.488,15.341,0,15.505v0.907c0.434,0.12,0.85,0.281,1.083,0.486c0.382,0.335,0.658,0.816,0.658,1.445v2.345
    c0,0.779,0.187,1.373,0.728,1.779c0.54,0.406,1.17,0.608,1.889,0.629l0.481-0.005v-1.168c-0.375-0.11-0.584-0.237-0.734-0.382
    c-0.271-0.246-0.424-0.645-0.424-1.195v-1.895c-0.011-0.644-0.114-1.146-0.349-1.513c-0.234-0.362-0.692-0.682-1.373-0.957
    c0.751-0.344,1.256-0.792,1.514-1.347c0.151-0.329,0.208-0.771,0.208-1.33v-1.737c0-0.573,0.133-0.976,0.363-1.204
    c0.125-0.124,0.348-0.227,0.658-0.31l0.488,0.003c0-0.42,0-0.684,0-1.149H4.108V8.911L4.108,8.911L4.108,8.911z"/>
  <path d="M8.613,18.421H8.247c-0.397,0-0.547-0.209-0.547-0.628v-7.725c0-0.464-0.135-0.79-0.306-0.978
    C7.221,8.902,6.922,8.905,6.499,8.905H5.672L5.575,8.902v0.008l-0.001,1.15v8.105c0,0.645,0.146,1.117,0.402,1.417
    c0.258,0.3,0.694,0.449,1.309,0.449c0.424,0,0.908-0.044,1.45-0.135c0.027-0.092,0.04-0.283,0.04-0.582
    C8.775,19.018,8.721,18.721,8.613,18.421z"/>
</svg>
