<?xml version="1.0" encoding="utf-8"?>
<!DOCTYPE svg PUBLIC "-//W3C//DTD SVG 1.1//EN" "http://www.w3.org/Graphics/SVG/1.1/DTD/svg11.dtd">
<svg version="1.1"
	xmlns="http://www.w3.org/2000/svg"
	xmlns:xlink="http://www.w3.org/1999/xlink" 
	viewBox="0 0 32 32">
<path d="M25.855,25.86h-4.147v-6.497c0-1.549-0.03-3.543-2.16-3.543c-2.162,0-2.491,1.687-2.491,3.43v6.61h-4.147
	V12.501h3.983v1.821h0.054c0.556-1.05,1.909-2.159,3.931-2.159c4.201,0,4.979,2.765,4.979,6.363V25.86z M8.227,10.672
	c-1.334,0-2.407-1.081-2.407-2.409c0-1.327,1.073-2.407,2.407-2.407c1.33,0,2.408,1.079,2.408,2.407
	C10.635,9.592,9.556,10.672,8.227,10.672z M10.306,25.86H6.147V12.5h4.158V25.86z M27.929,2H4.066C2.924,2,2,2.903,2,4.017v23.964
	c0,1.116,0.924,2.018,2.066,2.018h23.86c1.141,0,2.074-0.902,2.074-2.018V4.017C30,2.903,29.066,2,27.926,2H27.929z"/>
</svg>
