<?xml version="1.0" encoding="utf-8"?>
<!DOCTYPE svg PUBLIC "-//W3C//DTD SVG 1.1//EN" "http://www.w3.org/Graphics/SVG/1.1/DTD/svg11.dtd">
<svg version="1.1"
	xmlns="http://www.w3.org/2000/svg"
	xmlns:xlink="http://www.w3.org/1999/xlink" 
	viewBox="0 0 32 32">
	<polygon opacity="0.4" points="10,24 22,12 22,25 10,25"/>
	<path d="M23,32H9c-1.654,0-3-1.346-3-3V3c0-1.654,1.346-3,3-3h14c1.654,0,3,1.346,3,3v26C26,30.654,24.654,32,23,32
		z M9,2C8.449,2,8,2.449,8,3v26c0,0.551,0.449,1,1,1h14c0.551,0,1-0.449,1-1V3c0-0.551-0.449-1-1-1H9z"/>
	<path d="M21,26H7c-0.552,0-1-0.448-1-1s0.448-1,1-1h14c0.552,0,1,0.448,1,1S21.552,26,21,26z"/>
	<path d="M17,6h-2c-0.552,0-1-0.448-1-1s0.448-1,1-1h2c0.552,0,1,0.448,1,1S17.552,6,17,6z"/>
</svg>
