<?xml version="1.0" encoding="UTF-8" standalone="no"?><!DOCTYPE svg PUBLIC "-//W3C//DTD SVG 1.1//EN" "http://www.w3.org/Graphics/SVG/1.1/DTD/svg11.dtd"><svg width="100%" height="100%" viewBox="0 0 32 32" version="1.1" xmlns="http://www.w3.org/2000/svg" xmlns:xlink="http://www.w3.org/1999/xlink" xml:space="preserve" xmlns:serif="http://www.serif.com/" style="fill-rule:evenodd;clip-rule:evenodd;stroke-linejoin:round;stroke-miterlimit:2;"><path d="M0,5.486c0,-3.03 2.456,-5.486 5.486,-5.486l21.028,0c3.03,0 5.486,2.456 5.486,5.486l0,21.028c0,3.03 -2.456,5.486 -5.486,5.486l-21.028,0c-3.03,0 -5.486,-2.456 -5.486,-5.486l-0,-21.028Zm13.337,6.4l-4.587,8.228l-4.179,0l3.582,-6.425c0.555,-0.996 1.94,-1.803 3.094,-1.803l2.09,-0Zm0.782,-0l4.179,-0l-4.586,8.228l-4.179,0l4.586,-8.228Zm4.936,-0l4.178,-0l-3.581,6.425c-0.555,0.996 -1.94,1.803 -3.094,1.803l-2.089,0l4.586,-8.228Zm4.528,2.057c0,-1.137 0.935,-2.057 2.089,-2.057c1.154,-0 2.089,0.92 2.089,2.057c0,1.136 -0.935,2.057 -2.089,2.057c-1.154,0 -2.089,-0.921 -2.089,-2.057Z"/></svg>