<?xml version="1.0" encoding="utf-8"?>
<!DOCTYPE svg PUBLIC "-//W3C//DTD SVG 1.1//EN" "http://www.w3.org/Graphics/SVG/1.1/DTD/svg11.dtd">
<svg version="1.1"
	xmlns="http://www.w3.org/2000/svg"
	xmlns:xlink="http://www.w3.org/1999/xlink" 
	viewBox="0 0 32 32">
	<polygon opacity="0.4" points="31,7 29,5 11,23 7,24.6 5.4,23 3,29 9,26.6 9,26.6 13,25"/>
	<path d="M13,26c-0.256,0-0.512-0.098-0.707-0.293c-0.391-0.391-0.391-1.023,0-1.414L29.586,7L25,2.414L8.414,19
		l1.293,1.293c0.391,0.391,0.391,1.023,0,1.414s-1.023,0.391-1.414,0l-2-2c-0.391-0.391-0.391-1.023,0-1.414l18-18
		c0.391-0.391,1.023-0.391,1.414,0l6,6c0.391,0.391,0.391,1.023,0,1.414l-18,18C13.512,25.902,13.256,26,13,26z"/>
	<path d="M3,30c-0.26,0-0.516-0.102-0.707-0.293C2.01,29.424,1.923,29,2.071,28.628l4-10
		c0.205-0.513,0.785-0.763,1.3-0.557c0.513,0.206,0.762,0.787,0.557,1.3l-3.134,7.833l7.833-3.134
		c0.514-0.203,1.095,0.045,1.3,0.557c0.205,0.513-0.044,1.095-0.557,1.3l-10,4C3.251,29.977,3.125,30,3,30z"/>
	<path d="M27,12c-0.256,0-0.512-0.098-0.707-0.293l-6-6c-0.391-0.391-0.391-1.023,0-1.414s1.023-0.391,1.414,0l6,6
		c0.391,0.391,0.391,1.023,0,1.414C27.512,11.902,27.256,12,27,12z"/>
</svg>
