<?xml version="1.0" encoding="utf-8"?>
<!DOCTYPE svg PUBLIC "-//W3C//DTD SVG 1.1//EN" "http://www.w3.org/Graphics/SVG/1.1/DTD/svg11.dtd">
<svg version="1.1"
	xmlns="http://www.w3.org/2000/svg"
	xmlns:xlink="http://www.w3.org/1999/xlink" 
	viewBox="0 0 32 32">
<path d="M16.023,0C7.195,0,0.04,7.157,0.04,15.983c0,6.772,4.211,12.556,10.156,14.883
	c-0.14-1.265-0.265-3.204,0.055-4.585c0.292-1.249,1.875-7.943,1.875-7.943s-0.479-0.96-0.479-2.375
	c0-2.217,1.289-3.881,2.891-3.881c1.365,0,2.024,1.025,2.024,2.251c0,1.372-0.871,3.422-1.324,5.323
	c-0.38,1.591,0.8,2.887,2.367,2.887c2.837,0,5.023-2.993,5.023-7.316c0-3.814-2.75-6.492-6.676-6.492
	c-4.547,0-7.212,3.416-7.212,6.932c0,1.377,0.525,2.855,1.185,3.655c0.132,0.16,0.15,0.3,0.113,0.46
	c-0.12,0.5-0.391,1.598-0.445,1.816c-0.071,0.3-0.229,0.36-0.535,0.219c-1.993-0.919-3.244-3.835-3.244-6.193
	c0-5.035,3.664-9.669,10.56-9.669c5.544,0,9.855,3.956,9.855,9.231c0,5.513-3.477,9.949-8.311,9.949
	c-1.619,0-3.139-0.839-3.677-1.839l-0.999,3.797c-0.359,1.394-1.339,3.136-1.997,4.195C12.744,31.748,14.322,32,15.98,32
	c8.809,0,15.979-7.152,15.979-15.982c0-8.831-7.171-15.983-15.979-15.983L16.023,0z"/>
</svg>
