<?xml version="1.0" encoding="UTF-8" standalone="no"?><!DOCTYPE svg PUBLIC "-//W3C//DTD SVG 1.1//EN" "http://www.w3.org/Graphics/SVG/1.1/DTD/svg11.dtd"><svg width="100%" height="100%" viewBox="0 0 32 32" version="1.1" xmlns="http://www.w3.org/2000/svg" xmlns:xlink="http://www.w3.org/1999/xlink" xml:space="preserve" xmlns:serif="http://www.serif.com/" style="fill-rule:evenodd;clip-rule:evenodd;"><g><path d="M25.988,11.182c-0.321,-0.111 -0.655,-0.216 -0.998,-0.315c0.057,-0.23 0.108,-0.457 0.154,-0.68c0.756,-3.667 0.262,-6.621 -1.425,-7.594c-1.617,-0.932 -4.262,0.04 -6.933,2.365c-0.257,0.223 -0.514,0.46 -0.772,0.708c-0.171,-0.164 -0.342,-0.323 -0.513,-0.475c-2.8,-2.485 -5.606,-3.533 -7.291,-2.557c-1.615,0.935 -2.094,3.712 -1.414,7.187c0.066,0.336 0.143,0.679 0.229,1.027c-0.397,0.113 -0.78,0.233 -1.147,0.361c-3.282,1.144 -5.378,2.938 -5.378,4.798c0,1.921 2.25,3.848 5.669,5.016c0.269,0.092 0.549,0.18 0.838,0.262c-0.094,0.377 -0.175,0.747 -0.244,1.107c-0.648,3.415 -0.142,6.126 1.47,7.056c1.664,0.959 4.457,-0.027 7.177,-2.405c0.215,-0.188 0.431,-0.387 0.647,-0.596c0.28,0.27 0.56,0.525 0.838,0.765c2.635,2.267 5.237,3.182 6.847,2.25c1.663,-0.962 2.203,-3.875 1.501,-7.419c-0.053,-0.27 -0.116,-0.547 -0.186,-0.828c0.197,-0.058 0.389,-0.118 0.577,-0.18c3.554,-1.178 5.866,-3.081 5.866,-5.028c0,-1.867 -2.164,-3.673 -5.512,-4.825Zm-2.044,11.118c0.31,1.567 0.355,2.984 0.149,4.092c-0.184,0.995 -0.556,1.659 -1.015,1.924c-0.977,0.566 -3.066,-0.169 -5.319,-2.108c-0.258,-0.222 -0.519,-0.46 -0.78,-0.711c0.874,-0.955 1.747,-2.066 2.599,-3.299c1.499,-0.133 2.914,-0.351 4.198,-0.647c0.064,0.255 0.12,0.505 0.168,0.749Zm-12.875,5.919c-0.955,0.337 -1.715,0.346 -2.175,0.081c-0.977,-0.564 -1.384,-2.741 -0.829,-5.661c0.063,-0.334 0.139,-0.678 0.226,-1.029c1.27,0.281 2.675,0.483 4.177,0.604c0.858,1.207 1.756,2.317 2.661,3.288c-0.197,0.191 -0.394,0.373 -0.59,0.544c-1.203,1.051 -2.408,1.797 -3.47,2.173Zm4.982,-3.67c-0.627,-0.677 -1.253,-1.426 -1.865,-2.232c0.594,0.023 1.199,0.035 1.814,0.035c0.632,0 1.256,-0.014 1.871,-0.041c-0.603,0.82 -1.213,1.57 -1.82,2.238Zm4.275,-6.02c-0.485,0.84 -0.982,1.642 -1.487,2.399c-0.92,0.066 -1.87,0.1 -2.839,0.1c-0.965,0 -1.903,-0.03 -2.807,-0.089c-0.525,-0.767 -1.033,-1.571 -1.515,-2.403l0,0c-0.48,-0.829 -0.922,-1.666 -1.323,-2.498c0.401,-0.833 0.842,-1.671 1.319,-2.499l0,0.001c0.479,-0.831 0.983,-1.631 1.503,-2.393c0.922,-0.07 1.868,-0.106 2.823,-0.106l0,-0c0.96,-0 1.906,0.036 2.828,0.106c0.513,0.757 1.013,1.555 1.494,2.385c0.486,0.84 0.932,1.672 1.336,2.488c-0.403,0.829 -0.848,1.67 -1.332,2.509Zm-8.821,2.263c-1.015,-0.114 -1.972,-0.267 -2.857,-0.46c0.274,-0.884 0.611,-1.802 1.005,-2.736c0.278,0.536 0.571,1.071 0.879,1.604l0,-0c0.314,0.542 0.639,1.073 0.973,1.592Zm10.867,-3.244c0.415,0.944 0.764,1.858 1.041,2.727c-0.899,0.205 -1.869,0.37 -2.891,0.493c0.321,-0.51 0.639,-1.036 0.951,-1.577c0.316,-0.548 0.616,-1.096 0.899,-1.643Zm-15.775,2.222c-1.512,-0.517 -2.76,-1.188 -3.616,-1.921c-0.769,-0.658 -1.157,-1.312 -1.157,-1.842c0,-1.129 1.683,-2.569 4.49,-3.548c0.341,-0.118 0.697,-0.23 1.067,-0.335c0.388,1.262 0.897,2.581 1.511,3.915c-0.622,1.354 -1.138,2.694 -1.53,3.971c-0.264,-0.076 -0.519,-0.156 -0.765,-0.24Zm18.62,0.007c-0.169,0.057 -0.343,0.111 -0.52,0.163c-0.393,-1.242 -0.922,-2.562 -1.57,-3.927c0.618,-1.332 1.127,-2.636 1.509,-3.87c0.317,0.092 0.625,0.189 0.921,0.291c2.869,0.988 4.619,2.448 4.619,3.573c-0,1.198 -1.89,2.754 -4.959,3.77Zm-3.749,-6.908c-0.307,-0.53 -0.622,-1.047 -0.943,-1.551c0.989,0.125 1.937,0.291 2.827,0.495c-0.267,0.856 -0.6,1.751 -0.992,2.669c-0.282,-0.534 -0.579,-1.072 -0.892,-1.613Zm-10.941,0.009c-0.307,0.531 -0.599,1.067 -0.875,1.603c-0.386,-0.915 -0.716,-1.814 -0.985,-2.682c0.884,-0.198 1.827,-0.36 2.81,-0.483c-0.325,0.508 -0.643,1.029 -0.95,1.562l-0,-0Zm12.531,-9.138c1.038,0.599 1.442,3.013 0.789,6.179c-0.041,0.202 -0.088,0.408 -0.139,0.617c-1.286,-0.297 -2.683,-0.518 -4.145,-0.655c-0.852,-1.213 -1.734,-2.316 -2.62,-3.271c0.238,-0.229 0.476,-0.447 0.713,-0.653c2.288,-1.992 4.427,-2.779 5.402,-2.217Zm-14.962,5.827c-0.583,-2.977 -0.196,-5.224 0.778,-5.787c1.037,-0.601 3.33,0.256 5.747,2.402c0.155,0.137 0.31,0.28 0.466,0.429c-0.901,0.967 -1.791,2.068 -2.641,3.268c-1.458,0.135 -2.854,0.352 -4.137,0.643c-0.081,-0.325 -0.152,-0.643 -0.213,-0.955Zm7.919,-2.01c0.611,0.662 1.222,1.401 1.824,2.203c-0.606,-0.029 -1.22,-0.044 -1.839,-0.044c-0.613,0 -1.222,0.015 -1.825,0.043c0.602,-0.794 1.219,-1.532 1.84,-2.202Z" style="fill:#fff;fill-rule:nonzero;"/><path d="M16,13.238c1.529,0 2.768,1.24 2.768,2.769c0,1.528 -1.239,2.768 -2.768,2.768c-1.529,-0 -2.768,-1.24 -2.768,-2.768c-0,-1.529 1.239,-2.769 2.768,-2.769" style="fill:#fff;fill-rule:nonzero;"/></g></svg>