<?xml version="1.0" encoding="utf-8"?>
<!DOCTYPE svg PUBLIC "-//W3C//DTD SVG 1.1//EN" "http://www.w3.org/Graphics/SVG/1.1/DTD/svg11.dtd">
<svg version="1.1"
  xmlns="http://www.w3.org/2000/svg"
  viewBox="0 0 32 32">
  <path d="M16.001,1.002L16,1C7.717,1,1.001,7.715,1.001,15.999S7.716,31,16,31c8.283,0,14.999-6.717,14.999-15
    C30.999,7.716,24.285,1.002,16.001,1.002z M16.245,21.305c-0.071,0.063-0.164,0.1-0.26,0.102H7.68c-0.221,0-0.4-0.182-0.398-0.401
    c0,0,0,0,0-0.001V10.969c0-0.222,0.178-0.401,0.398-0.401h3.88c2.422,0,3.87,1.305,3.87,3.49c0,1.456-0.731,2.597-1.909,3.062
    l2.763,3.621C16.43,20.904,16.413,21.158,16.245,21.305z M21.792,21.406h-3.999c-0.222-0.001-0.399-0.184-0.399-0.403V10.968
    c0-0.222,0.18-0.401,0.399-0.401H21.5c2.782,0,3.365,1.638,3.365,3.011c0,0.794-0.211,1.425-0.631,1.889
    c1.021,0.419,1.57,1.37,1.57,2.742C25.808,20.21,24.305,21.406,21.792,21.406z"/>
</svg>
