<?xml version="1.0" encoding="utf-8"?>
<!DOCTYPE svg PUBLIC "-//W3C//DTD SVG 1.1//EN" "http://www.w3.org/Graphics/SVG/1.1/DTD/svg11.dtd">
<svg version="1.1"
	xmlns="http://www.w3.org/2000/svg"
	xmlns:xlink="http://www.w3.org/1999/xlink" 
	viewBox="0 0 32 32">
	<path opacity="0.4" d="M10,15.8v10.176C11.593,26.61,13.691,27,16,27v-8L10,15.8z"/>
	<path d="M16,20c-0.162,0-0.324-0.039-0.471-0.118l-15-8C0.204,11.708,0,11.369,0,11s0.204-0.708,0.529-0.882l15-8
		c0.294-0.157,0.647-0.157,0.941,0l15,8C31.796,10.292,32,10.631,32,11s-0.204,0.708-0.529,0.882l-15,8
		C16.324,19.961,16.162,20,16,20z M3.125,11L16,17.867L28.875,11L16,4.133L3.125,11z"/>
	<path d="M16,28c-5.701,0-10-2.149-10-5v-8.333c0-0.552,0.448-1,1-1s1,0.448,1,1V23c0,1.223,3.117,3,8,3s8-1.777,8-3
		v-4c0-0.552,0.448-1,1-1s1,0.448,1,1v4C26,25.851,21.701,28,16,28z"/>
	<path d="M29,24c-0.552,0-1-0.448-1-1V12.175c0-0.552,0.448-1,1-1s1,0.448,1,1V23C30,23.552,29.552,24,29,24z"/>
	<path d="M29,30c-0.552,0-1-0.448-1-1v-2c0-0.552,0.448-1,1-1s1,0.448,1,1v2C30,29.552,29.552,30,29,30z"/>
</svg>
