<?xml version="1.0" encoding="utf-8"?>
<!DOCTYPE svg PUBLIC "-//W3C//DTD SVG 1.1//EN" "http://www.w3.org/Graphics/SVG/1.1/DTD/svg11.dtd">
<svg version="1.1"
	xmlns="http://www.w3.org/2000/svg"
	xmlns:xlink="http://www.w3.org/1999/xlink" 
	viewBox="0 0 32 32">
	<path d="M1,29.167c-0.144,0-0.289-0.031-0.424-0.094C0.225,28.908,0,28.555,0,28.167v-23c0-1.654,1.346-3,3-3h26
		c1.654,0,3,1.346,3,3v16c0,1.654-1.346,3-3,3H11c-0.552,0-1-0.448-1-1s0.448-1,1-1h18c0.551,0,1-0.449,1-1v-16c0-0.551-0.449-1-1-1
		H3c-0.551,0-1,0.449-1,1v20.865l4.36-3.633c0.424-0.354,1.054-0.297,1.408,0.128c0.354,0.424,0.296,1.055-0.128,1.408l-6,5
		C1.457,29.088,1.229,29.167,1,29.167z"/>
</svg>
