<?xml version="1.0" encoding="utf-8"?>
<!DOCTYPE svg PUBLIC "-//W3C//DTD SVG 1.1//EN" "http://www.w3.org/Graphics/SVG/1.1/DTD/svg11.dtd">
<svg version="1.1"
	xmlns="http://www.w3.org/2000/svg"
	xmlns:xlink="http://www.w3.org/1999/xlink"
	viewBox="0 0 32 32">
<path d="M22.802,14.338c-0.135-0.414-0.493-0.715-0.923-0.778l-3.354-0.487l-1.498-3.039c-0.385-0.781-1.665-0.781-2.05,0
	l-1.499,3.039l-3.354,0.487c-0.431,0.063-0.789,0.365-0.923,0.778s-0.023,0.868,0.289,1.171l2.427,2.366l-0.572,3.34
	c-0.073,0.429,0.103,0.861,0.455,1.118c0.354,0.256,0.821,0.289,1.204,0.086l3-1.576l3,1.576c0.167,0.089,0.35,0.132,0.532,0.132
	c0.005,0,0.014-0.001,0.022,0c0.631,0,1.143-0.512,1.143-1.143c0-0.146-0.027-0.286-0.077-0.414l-0.535-3.12l2.427-2.366
	C22.825,15.205,22.937,14.751,22.802,14.338L22.802,14.338z"/>
</svg>
