<?xml version="1.0" encoding="UTF-8" standalone="no"?>
<!DOCTYPE svg PUBLIC "-//W3C//DTD SVG 1.1//EN" "http://www.w3.org/Graphics/SVG/1.1/DTD/svg11.dtd">
<svg width="100%" height="100%" viewBox="0 0 32 32" version="1.1" xmlns="http://www.w3.org/2000/svg" xmlns:xlink="http://www.w3.org/1999/xlink" xml:space="preserve" xmlns:serif="http://www.serif.com/" style="fill-rule:evenodd;clip-rule:evenodd;">
<path d="M18.192,14.752l-6.27,-0l0,2.95l6.119,0c0.362,0 0.693,-0.147 0.965,-0.383c0.241,-0.236 0.391,-0.59 0.391,-1.033c0.009,-0.38 -0.107,-0.752 -0.331,-1.062c-0.241,-0.295 -0.512,-0.472 -0.874,-0.472Zm0.211,-3.57c0.271,-0.177 0.392,-0.561 0.392,-1.062c-0,-0.443 -0.121,-0.767 -0.332,-0.974c-0.211,-0.177 -0.482,-0.295 -0.784,-0.295l-5.757,0l0,2.655l5.637,0c0.301,0 0.603,-0.147 0.844,-0.324Z" style="fill:#fff;fill-rule:nonzero;"/>
<path d="M28.372,0l-24.556,0c-0.782,0 -1.408,0.624 -1.408,1.372l0,24.515c0,0.748 0.626,1.216 1.377,1.216l3.628,0l0,4.897l4.505,-4.865l16.454,-0c0.75,-0 1.22,-0.468 1.22,-1.248l-0,-24.483c-0,-0.749 -0.47,-1.373 -1.252,-1.373l0.032,-0.031Zm-4.129,19.867c-0.313,0.562 -0.782,1.03 -1.345,1.373c-0.595,0.374 -1.252,0.717 -2.002,0.873c-0.751,0.187 -1.565,0.343 -2.409,0.343l-11.074,0l0,-17.466l12.575,0c0.626,0 1.158,0.125 1.658,0.406c0.469,0.249 0.907,0.592 1.252,0.998c0.7,0.852 1.077,1.923 1.063,3.025c0,0.811 -0.219,1.591 -0.626,2.339c-0.421,0.753 -1.081,1.345 -1.876,1.684c1.001,0.281 1.783,0.78 2.377,1.498c0.563,0.748 0.845,1.715 0.845,2.931c-0,0.78 -0.157,1.435 -0.47,1.996l0.032,0Z" style="fill:#fff;fill-rule:nonzero;"/>
</svg>