<?xml version="1.0" encoding="UTF-8" standalone="no"?><!DOCTYPE svg PUBLIC "-//W3C//DTD SVG 1.1//EN" "http://www.w3.org/Graphics/SVG/1.1/DTD/svg11.dtd"><svg width="100%" height="100%" viewBox="0 0 32 32" version="1.1" xmlns="http://www.w3.org/2000/svg" xmlns:xlink="http://www.w3.org/1999/xlink" xml:space="preserve" xmlns:serif="http://www.serif.com/" style="fill-rule:evenodd;clip-rule:evenodd;stroke-linejoin:round;stroke-miterlimit:2;"><path d="M4.15,29.487l-0.991,-26.414c-0.033,-0.872 0.636,-1.611 1.507,-1.666l22.467,-1.404c0.887,-0.055 1.651,0.619 1.706,1.506c0.002,0.033 0.003,0.066 0.003,0.1l0,28.782c0,0.889 -0.72,1.609 -1.609,1.609c-0.024,0 -0.048,-0 -0.072,-0.002l-21.475,-0.964c-0.837,-0.038 -1.504,-0.71 -1.536,-1.547Zm18.81,-17.229c-0.566,0.439 -4.782,0.739 -4.782,0.113c0.089,-2.388 -0.981,-2.493 -1.575,-2.493c-0.564,0 -1.515,0.171 -1.515,1.45c0,1.304 1.389,2.04 3.02,2.904c2.316,1.228 5.119,2.713 5.119,6.451c0,3.583 -2.911,5.562 -6.624,5.562c-3.832,-0 -7.18,-1.55 -6.802,-6.925c0.149,-0.631 5.02,-0.481 5.02,-0c-0.059,2.218 0.446,2.87 1.723,2.87c0.98,0 1.426,-0.54 1.426,-1.45c-0,-1.377 -1.448,-2.19 -3.113,-3.124c-2.254,-1.266 -4.907,-2.756 -4.907,-6.174c-0,-3.412 2.346,-5.687 6.534,-5.687c4.189,0 6.476,2.24 6.476,6.503Zm2.406,-12.144l-3.092,0.193l-0.15,3.626c-0.003,0.056 0.014,0.111 0.048,0.155c0.08,0.106 0.231,0.127 0.337,0.047l1.408,-1.069l1.19,0.937c0.045,0.035 0.1,0.054 0.157,0.052c0.132,-0.005 0.236,-0.116 0.231,-0.249l-0.129,-3.692Z"/></svg>