<?xml version="1.0" encoding="UTF-8" standalone="no"?><!DOCTYPE svg PUBLIC "-//W3C//DTD SVG 1.1//EN" "http://www.w3.org/Graphics/SVG/1.1/DTD/svg11.dtd">
<svg width="100%" height="100%" viewBox="0 0 32 32" version="1.1" xmlns="http://www.w3.org/2000/svg" xmlns:xlink="http://www.w3.org/1999/xlink" xml:space="preserve" xmlns:serif="http://www.serif.com/" style="fill-rule:evenodd;clip-rule:evenodd;">
<path d="M0,11.093c0,-5.229 0,-7.844 1.625,-9.468c1.624,-1.625 4.239,-1.625 9.468,-1.625l9.814,0c5.229,0 7.844,0 9.468,1.625c1.625,1.624 1.625,4.239 1.625,9.468l0,9.814c0,5.229 0,7.844 -1.625,9.468c-1.624,1.625 -4.239,1.625 -9.468,1.625l-9.814,0c-5.229,0 -7.844,0 -9.468,-1.625c-1.625,-1.624 -1.625,-4.239 -1.625,-9.468l0,-9.814Zm11.307,-1.386l-5.312,5.311c-0.067,0.067 -0.019,0.182 0.076,0.182l5.236,0l-0,5.28c-0,0.118 0.095,0.213 0.213,0.213l5.28,0l0,5.236c0,0.095 0.115,0.143 0.182,0.076l5.311,-5.312l0,-10.773c0,-0.118 -0.095,-0.213 -0.213,-0.213l-10.773,-0Z" style="fill:#fff;fill-rule:nonzero;"/><path d="M10.807,15.7l-0,4.78c-0,0.394 0.319,0.713 0.713,0.713l4.78,0l-0,4.736c-0,0.54 0.653,0.811 1.036,0.429c-0,0 5.311,-5.311 5.311,-5.311c0.143,-0.143 0.186,-0.358 0.108,-0.545c-0.077,-0.187 -0.259,-0.309 -0.462,-0.309l-4.993,0l-0,-4.78c-0,-0.394 -0.319,-0.713 -0.713,-0.713l-4.78,-0l-0,-4.993c-0,-0.203 -0.122,-0.385 -0.309,-0.462c-0.187,-0.078 -0.402,-0.035 -0.545,0.108l-5.311,5.311c-0.382,0.383 -0.112,1.036 0.429,1.036l4.736,-0Z" style="fill:#fff;fill-opacity:0.4;"/>
</svg>