<?xml version="1.0" encoding="UTF-8" standalone="no"?><!DOCTYPE svg PUBLIC "-//W3C//DTD SVG 1.1//EN" "http://www.w3.org/Graphics/SVG/1.1/DTD/svg11.dtd"><svg width="100%" height="100%" viewBox="0 0 32 32" version="1.1" xmlns="http://www.w3.org/2000/svg" xmlns:xlink="http://www.w3.org/1999/xlink" xml:space="preserve" xmlns:serif="http://www.serif.com/" style="fill-rule:evenodd;clip-rule:evenodd;stroke-linejoin:round;stroke-miterlimit:2;"><g><path d="M4.022,16.065c0.002,0.009 0.003,0.017 0.005,0.025c0.002,0.008 0.005,0.016 0.007,0.024l3.857,15.614c0.031,0.124 0.125,0.222 0.248,0.258c0.123,0.035 0.255,0.003 0.347,-0.086l23.251,-22.366c0.093,-0.088 0.13,-0.219 0.1,-0.343c-0.031,-0.124 -0.126,-0.223 -0.249,-0.258l-7.705,-2.219c-0.027,-0.015 -0.055,-0.028 -0.086,-0.037c-0.03,-0.009 -0.061,-0.013 -0.092,-0.014l-15.197,-4.375c-0.028,-0.018 -0.059,-0.032 -0.092,-0.042c-0.033,-0.009 -0.067,-0.014 -0.101,-0.014l-7.705,-2.218c-0.123,-0.035 -0.255,-0.003 -0.347,0.086c-0.092,0.089 -0.13,0.219 -0.1,0.343l3.859,15.622Zm4.415,14.89l5.041,-4.849l-6.715,-1.927l1.674,6.776Zm3.518,-12.135l1.621,6.57c0,0 -6.501,-1.866 -6.501,-1.866l4.88,-4.704Zm2.341,6.499l4.867,-4.681l-6.483,-1.868l1.616,6.549Zm-7.802,-2.229l4.875,-4.698l-6.498,-1.873l1.623,6.571Zm11.217,-9.824l-4.959,4.78l6.608,1.904l-1.649,-6.684Zm2.344,6.514l4.972,-4.783l-6.622,-1.901l1.65,6.684Zm-14.986,-3.948l6.62,1.908l-1.651,-6.692l-4.969,4.784Zm7.283,1.606l-1.622,-6.57c0,-0 6.502,1.866 6.502,1.866l-4.88,4.704Zm-7.778,-2.122l4.965,-4.781l-6.615,-1.899l1.65,6.68Zm18.926,-7.607l1.621,6.571c-0,-0 -6.502,-1.867 -6.502,-1.867l4.881,-4.704Zm0.697,-0.16l1.644,6.664l4.954,-4.764l-6.598,-1.9Zm-13.26,2.634l6.471,1.857l-1.612,-6.534l-4.859,4.677Zm7.175,1.726l4.882,-4.706l-6.505,-1.873l1.623,6.579Zm-9.994,-8.631l1.621,6.571c0,-0 -6.501,-1.867 -6.501,-1.867l4.88,-4.704Zm2.315,6.397l4.869,-4.687l-6.486,-1.867l1.617,6.554Zm-7.777,-2.125l4.954,-4.776l-6.604,-1.901l1.65,6.677Z"/></g></svg>