<?xml version="1.0" encoding="utf-8"?>
<!DOCTYPE svg PUBLIC "-//W3C//DTD SVG 1.1//EN" "http://www.w3.org/Graphics/SVG/1.1/DTD/svg11.dtd">
<svg version="1.1"
	xmlns="http://www.w3.org/2000/svg"
	xmlns:xlink="http://www.w3.org/1999/xlink" 
	viewBox="0 0 32 32">
	<polygon opacity="0.4" points="9,16 10,23 10,31 16,31 16,23 15,16"/>
	<path d="M25.001,24c-0.047,0-0.095-0.003-0.143-0.01c-0.546-0.078-0.926-0.584-0.848-1.131l1.22-8.542
		c0.046-0.325,0.249-0.606,0.543-0.753C27.147,12.878,28,11.512,28,10c0-2.206-1.794-4-4-4c-0.859,0-1.688,0.284-2.399,0.822
		c-0.304,0.228-0.71,0.266-1.049,0.098c-0.34-0.169-0.555-0.516-0.555-0.896c0-0.02,0.001-0.042,0.002-0.064
		C19.979,3.773,18.192,2,16,2s-3.979,1.773-4,3.96c0.001,0.022,0.002,0.044,0.002,0.064c0,0.379-0.215,0.727-0.555,0.896
		c-0.339,0.169-0.746,0.131-1.049-0.098C9.688,6.284,8.859,6,8,6c-2.206,0-4,1.794-4,4c0,1.512,0.853,2.878,2.227,3.564
		c0.294,0.146,0.497,0.428,0.543,0.753l1.22,8.542c0.078,0.547-0.302,1.053-0.848,1.131c-0.547,0.08-1.053-0.301-1.131-0.848
		l-1.15-8.051C3.083,14,2,12.095,2,10c0-3.309,2.691-6,6-6c0.763,0,1.508,0.146,2.208,0.431C10.9,1.881,13.234,0,16,0
		s5.1,1.881,5.792,4.431C22.492,4.146,23.237,4,24,4c3.309,0,6,2.691,6,6c0,2.095-1.083,4-2.86,5.091l-1.15,8.051
		C25.918,23.64,25.491,24,25.001,24z"/>
	<path d="M25,32H7c-0.552,0-1-0.448-1-1v-8c0-0.552,0.448-1,1-1h12c0.552,0,1,0.448,1,1s-0.448,1-1,1H8v6h16v-6h-1
		c-0.552,0-1-0.448-1-1s0.448-1,1-1h2c0.552,0,1,0.448,1,1v8C26,31.552,25.552,32,25,32z"/>
</svg>
