<?xml version="1.0" encoding="utf-8"?>
<!DOCTYPE svg PUBLIC "-//W3C//DTD SVG 1.1//EN" "http://www.w3.org/Graphics/SVG/1.1/DTD/svg11.dtd">
<svg version="1.1"
	xmlns="http://www.w3.org/2000/svg"
	xmlns:xlink="http://www.w3.org/1999/xlink" 
	viewBox="0 0 32 32">
<path d="M31.937,6.096c-1.18,0.519-2.438,0.872-3.767,1.033c1.353-0.814,2.392-2.099,2.886-3.63
	c-1.27,0.74-2.675,1.278-4.17,1.579C25.688,3.799,23.987,3,22.097,3c-3.623,0-6.56,2.936-6.56,6.553c0,0.52,0.06,1.02,0.169,1.499
	C10.254,10.795,5.42,8.177,2.187,4.219C1.618,5.182,1.299,6.3,1.299,7.519c0,2.279,1.16,4.282,2.917,5.459
	c-1.075-0.035-2.087-0.331-2.97-0.821v0.081c0,3.179,2.257,5.83,5.26,6.434c-0.551,0.146-1.131,0.229-1.728,0.229
	c-0.418,0-0.82-0.039-1.221-0.113c0.841,2.603,3.26,4.501,6.139,4.554c-2.24,1.761-5.078,2.808-8.136,2.808
	c-0.52,0-1.039-0.031-1.56-0.088C2.919,27.916,6.357,29,10.077,29c12.072,0,18.665-9.991,18.665-18.64c0-0.279,0-0.561-0.021-0.84
	C30.001,8.602,31.121,7.441,32,6.125L31.937,6.096L31.937,6.096z"/>
</svg>
