<?xml version="1.0" encoding="UTF-8" standalone="no"?>
<!DOCTYPE svg PUBLIC "-//W3C//DTD SVG 1.1//EN" "http://www.w3.org/Graphics/SVG/1.1/DTD/svg11.dtd">
<svg viewBox="0 0 32 32" xmlns="http://www.w3.org/2000/svg" xmlns:xlink="http://www.w3.org/1999/xlink">
<path d="M20,4c0,-2.208 -1.792,-4 -4,-4c-2.208,-0 -4,1.792 -4,4c0,2.208 1.792,4 4,4c2.208,-0 4,-1.792 4,-4Zm-2,-0c0,1.104 -0.896,2 -2,2c-1.104,-0 -2,-0.896 -2,-2c0,-1.104 0.896,-2 2,-2c1.104,-0 2,0.896 2,2Z"/>
<path d="M10.017,30.977l4.8,-6.8c0.318,-0.451 0.211,-1.076 -0.24,-1.394c-0.451,-0.318 -1.076,-0.211 -1.394,0.24l-4.8,6.8c-0.318,0.451 -0.211,1.076 0.24,1.394c0.451,0.318 1.076,0.211 1.394,-0.24Z"/>
<path d="M18.293,14.707l3,3c0.39,0.39 1.024,0.39 1.414,0c0.39,-0.39 0.39,-1.024 0,-1.414l-3,-3c-0.39,-0.39 -1.024,-0.39 -1.414,-0c-0.39,0.39 -0.39,1.024 -0,1.414Z"/>
<path d="M15.999,9c-2.741,-0.01 -4.973,2.204 -4.985,4.946l-0.013,3.977c-0.002,0.552 0.445,1.002 0.997,1.003c0.552,0.002 1.001,-0.444 1.003,-0.996l0.013,-3.975c0.006,-1.29 0.834,-2.385 1.986,-2.789l0,9.875c0,0.265 0.105,0.52 0.293,0.707l9.454,9.455c0.391,0.39 1.024,0.39 1.415,-0c0.39,-0.391 0.39,-1.024 -0,-1.414l-9.162,-9.162c-0,0 0,-10.627 0,-10.627l-0.001,-0.034l-0.001,-0.03l-0.003,-0.034l-0.003,-0.032l-0.006,-0.035l-0.006,-0.036l-0.008,-0.037l-0.01,-0.036l-0.011,-0.035l-0.012,-0.035l-0.008,-0.023l-0.01,-0.022l-0.009,-0.022l-0.011,-0.022l-0.01,-0.022l-0.012,-0.021l-0.012,-0.022l-0.012,-0.02l-0.013,-0.021l-0.013,-0.02l-0.014,-0.02l-0.014,-0.019l-0.022,-0.029l-0.023,-0.027l-0.024,-0.027l-0.025,-0.026l-0.026,-0.025l-0.027,-0.024l-0.027,-0.023l-0.029,-0.022l-0.029,-0.021l-0.026,-0.018l-0.027,-0.016l-0.029,-0.017l-0.028,-0.015l-0.028,-0.015l-0.031,-0.014l-0.033,-0.014l-0.035,-0.012l-0.035,-0.012l-0.035,-0.01l-0.024,-0.007l-0.024,-0.005l-0.025,-0.005l-0.024,-0.004l-0.025,-0.004l-0.025,-0.003l-0.025,-0.003l-0.026,-0.002l-0.025,-0.001l-0.026,-0.001l-0.014,0Z"/>
</svg>